{"glyphs":{"0":{"ha":875,"x_min":0,"x_max":0,"o":"m 438 -15 b 801 486 671 -15 801 186 b 438 988 801 786 671 988 b 74 486 204 988 74 786 b 438 -15 74 186 204 -15 z m 438 56 b 149 486 257 56 149 214 b 438 917 149 758 257 917 b 726 486 618 917 726 758 b 438 56 726 214 618 56 z "},"1":{"ha":461,"x_min":0,"x_max":0,"o":"m 278 972 l 24 885 l 42 821 l 267 892 l 267 0 l 340 0 l 340 972 z "},"2":{"ha":732,"x_min":0,"x_max":0,"o":"m 60 0 l 671 0 l 671 71 l 165 71 l 467 381 b 649 708 565 481 649 588 b 360 988 649 889 508 988 b 65 807 233 988 124 926 l 128 769 b 360 917 174 867 254 917 b 574 708 478 917 574 842 b 417 433 574 613 501 521 l 60 67 z "},"3":{"ha":749,"x_min":0,"x_max":0,"o":"m 404 568 l 638 903 l 638 972 l 78 972 l 78 903 l 553 903 l 307 554 l 339 506 l 360 506 b 610 281 504 506 610 421 b 363 56 610 140 504 56 b 114 206 240 56 150 108 l 53 169 b 363 -15 100 50 221 -15 b 683 281 535 -15 683 93 b 404 568 683 451 558 553 z "},"4":{"ha":796,"x_min":0,"x_max":0,"o":"m 761 274 l 636 274 l 636 579 l 563 579 l 563 274 l 121 274 l 489 972 l 408 972 l 39 274 l 39 204 l 563 204 l 563 0 l 636 0 l 636 204 l 761 204 z "},"5":{"ha":751,"x_min":0,"x_max":0,"o":"m 369 576 l 186 576 l 208 903 l 657 903 l 657 972 l 143 972 l 110 506 l 369 506 b 619 281 514 506 619 421 b 369 56 619 140 514 56 b 125 217 250 56 157 113 l 63 181 b 369 -15 107 53 231 -15 b 693 281 544 -15 693 93 b 369 576 693 468 544 576 z "},"6":{"ha":746,"x_min":0,"x_max":0,"o":"m 372 625 b 267 610 335 625 300 619 l 515 972 l 432 972 l 106 499 b 46 304 68 446 46 381 b 372 -15 46 115 183 -15 b 699 304 561 -15 699 115 b 372 625 699 494 561 625 z m 372 56 b 121 304 218 56 121 160 b 372 554 121 450 218 554 b 625 304 526 554 625 450 b 372 56 625 160 526 56 z "},"7":{"ha":681,"x_min":0,"x_max":0,"o":"m 32 972 l 32 903 l 544 903 l 167 0 l 243 0 l 621 903 l 621 972 z "},"8":{"ha":764,"x_min":0,"x_max":0,"o":"m 531 503 b 672 725 614 544 672 622 b 382 988 672 897 535 988 b 92 725 229 988 92 897 b 233 503 92 622 150 544 b 60 260 129 461 60 374 b 382 -15 60 83 200 -15 b 704 260 564 -15 704 83 b 531 503 704 374 635 461 z m 165 725 b 382 917 165 850 260 917 b 599 725 504 917 599 850 b 382 535 599 606 504 535 b 165 725 260 535 165 606 z m 382 56 b 135 260 231 56 135 131 b 382 463 135 388 231 463 b 629 260 533 463 629 388 b 382 56 629 131 533 56 z "},"9":{"ha":746,"x_min":0,"x_max":0,"o":"m 699 668 b 372 988 699 857 561 988 b 46 668 183 988 46 857 b 372 347 46 478 183 347 b 479 363 410 347 446 353 l 231 0 l 314 0 l 639 474 b 699 668 676 526 699 592 z m 121 668 b 372 917 121 813 218 917 b 625 668 526 917 625 813 b 372 418 625 522 526 418 b 121 668 218 418 121 522 z "},"A":{"ha":874,"x_min":0,"x_max":0,"o":"m 775 0 l 853 0 l 476 972 l 399 972 l 21 0 l 99 0 l 193 247 l 681 247 z m 221 317 l 438 882 l 654 317 z "},"Á":{"ha":874,"x_min":0,"x_max":0,"o":"m 574 1246 l 490 1246 l 379 1069 l 447 1069 z m 775 0 l 853 0 l 476 972 l 399 972 l 21 0 l 99 0 l 193 247 l 681 247 z m 221 317 l 438 882 l 654 317 z "},"Ă":{"ha":874,"x_min":0,"x_max":0,"o":"m 438 1063 b 622 1232 550 1063 622 1126 l 556 1232 b 438 1124 556 1160 511 1124 b 319 1232 364 1124 319 1160 l 253 1232 b 438 1063 253 1126 326 1063 z m 775 0 l 853 0 l 476 972 l 399 972 l 21 0 l 99 0 l 193 247 l 681 247 z m 221 317 l 438 882 l 654 317 z "},"Â":{"ha":874,"x_min":0,"x_max":0,"o":"m 438 1201 l 549 1069 l 628 1069 l 478 1246 l 396 1246 l 246 1069 l 325 1069 z m 775 0 l 853 0 l 476 972 l 399 972 l 21 0 l 99 0 l 193 247 l 681 247 z m 221 317 l 438 882 l 654 317 z "},"Ä":{"ha":874,"x_min":0,"x_max":0,"o":"m 313 1079 b 363 1129 340 1079 363 1101 b 313 1181 363 1158 340 1181 b 261 1129 283 1181 261 1158 b 313 1079 261 1101 283 1079 z m 563 1079 b 613 1129 590 1079 613 1101 b 563 1181 613 1158 590 1181 b 511 1129 533 1181 511 1158 b 563 1079 511 1101 533 1079 z m 775 0 l 853 0 l 476 972 l 399 972 l 21 0 l 99 0 l 193 247 l 681 247 z m 221 317 l 438 882 l 654 317 z "},"À":{"ha":874,"x_min":0,"x_max":0,"o":"m 504 1069 l 393 1246 l 310 1246 l 438 1069 z m 775 0 l 853 0 l 476 972 l 399 972 l 21 0 l 99 0 l 193 247 l 681 247 z m 221 317 l 438 882 l 654 317 z "},"Ā":{"ha":874,"x_min":0,"x_max":0,"o":"m 613 1154 l 261 1154 l 261 1093 l 613 1093 z m 775 0 l 853 0 l 476 972 l 399 972 l 21 0 l 99 0 l 193 247 l 681 247 z m 221 317 l 438 882 l 654 317 z "},"Ą":{"ha":874,"x_min":0,"x_max":0,"o":"m 738 -182 b 853 0 738 -129 782 -64 l 476 972 l 399 972 l 21 0 l 99 0 l 193 247 l 681 247 l 775 0 l 776 0 b 669 -193 704 -69 669 -137 b 778 -293 669 -253 708 -293 b 853 -279 808 -293 832 -289 l 853 -221 b 793 -233 835 -229 817 -233 b 738 -182 760 -233 738 -217 z m 221 317 l 438 882 l 654 317 z "},"Å":{"ha":874,"x_min":0,"x_max":0,"o":"m 775 0 l 853 0 l 489 939 b 579 1065 544 957 579 1006 b 436 1200 579 1142 522 1200 b 294 1065 351 1200 294 1142 b 386 939 294 1006 329 957 l 21 0 l 99 0 l 193 247 l 681 247 z m 354 1065 b 436 1144 354 1111 385 1144 b 521 1065 489 1144 521 1111 b 436 986 521 1019 489 986 b 354 1065 385 986 354 1019 z m 221 317 l 438 882 l 654 317 z "},"Ã":{"ha":874,"x_min":0,"x_max":0,"o":"m 435 1126 b 626 1229 531 1043 626 1074 l 565 1229 b 440 1190 565 1122 518 1124 b 249 1088 344 1274 249 1244 l 310 1088 b 435 1126 310 1196 357 1193 z m 775 0 l 853 0 l 476 972 l 399 972 l 21 0 l 99 0 l 193 247 l 681 247 z m 221 317 l 438 882 l 654 317 z "},"Æ":{"ha":1213,"x_min":0,"x_max":0,"o":"m 699 69 l 699 456 l 1119 456 l 1119 525 l 699 525 l 699 903 l 1144 903 l 1144 972 l 600 972 l 4 0 l 89 0 l 244 254 l 624 254 l 624 0 l 1151 0 l 1151 69 z m 286 324 l 624 876 l 624 324 z "},"B":{"ha":865,"x_min":0,"x_max":0,"o":"m 639 504 b 764 717 714 544 764 622 b 508 972 764 857 650 972 l 121 972 l 121 0 l 540 0 b 806 265 688 0 806 118 b 639 504 806 376 736 467 z m 508 903 b 690 717 608 903 690 819 b 508 531 690 614 608 531 l 194 531 l 194 903 z m 540 69 l 194 69 l 194 461 l 540 461 b 732 265 646 461 732 374 b 540 69 732 157 646 69 z "},"C":{"ha":1043,"x_min":0,"x_max":0,"o":"m 571 -15 b 990 222 753 -15 911 79 l 925 260 b 571 56 861 138 725 56 b 139 486 315 56 139 247 b 571 917 139 725 315 917 b 922 717 724 917 858 836 l 988 754 b 571 988 907 896 750 988 b 65 486 275 988 65 764 b 571 -15 65 208 275 -15 z "},"Ć":{"ha":1043,"x_min":0,"x_max":0,"o":"m 513 1069 l 624 1246 l 707 1246 l 581 1069 z m 571 -15 b 990 222 753 -15 911 79 l 925 260 b 571 56 861 138 725 56 b 139 486 315 56 139 247 b 571 917 139 725 315 917 b 922 717 724 917 858 836 l 988 754 b 571 988 907 896 750 988 b 65 486 275 988 65 764 b 571 -15 65 208 275 -15 z "},"Č":{"ha":1043,"x_min":0,"x_max":0,"o":"m 529 1069 l 613 1069 l 763 1246 l 682 1246 l 571 1114 l 460 1246 l 379 1246 z m 925 260 b 571 56 861 138 725 56 b 139 486 315 56 139 247 b 571 917 139 725 315 917 b 922 717 724 917 858 836 l 988 754 b 571 988 907 896 750 988 b 65 486 275 988 65 764 b 571 -15 65 208 275 -15 b 990 222 753 -15 911 79 z "},"Ç":{"ha":1043,"x_min":0,"x_max":0,"o":"m 990 222 l 925 260 b 571 56 861 138 725 56 b 139 486 315 56 139 247 b 571 917 139 725 315 917 b 922 717 724 917 858 836 l 988 754 b 571 988 907 896 750 988 b 65 486 275 988 65 764 b 539 -14 65 218 260 1 l 539 -122 b 667 -182 621 -122 667 -142 b 457 -236 667 -226 597 -250 l 457 -293 b 728 -182 668 -310 728 -250 b 601 -78 728 -122 672 -86 l 601 -14 b 990 222 771 -4 915 88 z "},"Ċ":{"ha":1043,"x_min":0,"x_max":0,"o":"m 571 1074 b 635 1139 607 1074 635 1103 b 571 1204 635 1175 607 1204 b 506 1139 533 1204 506 1175 b 571 1074 506 1103 533 1074 z m 571 -15 b 990 222 753 -15 911 79 l 925 260 b 571 56 861 138 725 56 b 139 486 315 56 139 247 b 571 917 139 725 315 917 b 922 717 724 917 858 836 l 988 754 b 571 988 907 896 750 988 b 65 486 275 988 65 764 b 571 -15 65 208 275 -15 z "},"D":{"ha":1010,"x_min":0,"x_max":0,"o":"m 486 972 l 121 972 l 121 0 l 486 0 b 944 486 754 0 944 218 b 486 972 944 754 754 972 z m 486 69 l 194 69 l 194 903 l 486 903 b 872 486 715 903 872 717 b 486 69 872 256 715 69 z "},"Ð":{"ha":1038,"x_min":0,"x_max":0,"o":"m 514 972 l 149 972 l 149 519 l 56 519 l 56 453 l 149 453 l 149 0 l 514 0 b 972 486 782 0 972 218 b 514 972 972 754 782 972 z m 514 69 l 222 69 l 222 453 l 556 453 l 556 519 l 222 519 l 222 903 l 514 903 b 900 486 743 903 900 717 b 514 69 900 256 743 69 z "},"Ď":{"ha":1010,"x_min":0,"x_max":0,"o":"m 444 1069 l 528 1069 l 678 1246 l 597 1246 l 486 1114 l 375 1246 l 294 1246 z m 486 972 l 121 972 l 121 0 l 486 0 b 944 486 754 0 944 218 b 486 972 944 754 754 972 z m 486 69 l 194 69 l 194 903 l 486 903 b 872 486 715 903 872 717 b 486 69 872 256 715 69 z "},"Đ":{"ha":1038,"x_min":0,"x_max":0,"o":"m 514 972 l 149 972 l 149 519 l 56 519 l 56 453 l 149 453 l 149 0 l 514 0 b 972 486 782 0 972 218 b 514 972 972 754 782 972 z m 514 69 l 222 69 l 222 453 l 556 453 l 556 519 l 222 519 l 222 903 l 514 903 b 900 486 743 903 900 717 b 514 69 900 256 743 69 z "},"E":{"ha":740,"x_min":0,"x_max":0,"o":"m 194 69 l 194 456 l 639 456 l 639 525 l 194 525 l 194 903 l 674 903 l 674 972 l 121 972 l 121 0 l 681 0 l 681 69 z "},"É":{"ha":740,"x_min":0,"x_max":0,"o":"m 533 1246 l 450 1246 l 339 1069 l 407 1069 z m 194 69 l 194 456 l 639 456 l 639 525 l 194 525 l 194 903 l 674 903 l 674 972 l 121 972 l 121 0 l 681 0 l 681 69 z "},"Ě":{"ha":740,"x_min":0,"x_max":0,"o":"m 356 1069 l 439 1069 l 589 1246 l 508 1246 l 397 1114 l 286 1246 l 206 1246 z m 194 69 l 194 456 l 639 456 l 639 525 l 194 525 l 194 903 l 674 903 l 674 972 l 121 972 l 121 0 l 681 0 l 681 69 z "},"Ê":{"ha":740,"x_min":0,"x_max":0,"o":"m 397 1201 l 508 1069 l 588 1069 l 438 1246 l 356 1246 l 206 1069 l 285 1069 z m 194 69 l 194 456 l 639 456 l 639 525 l 194 525 l 194 903 l 674 903 l 674 972 l 121 972 l 121 0 l 681 0 l 681 69 z "},"Ë":{"ha":740,"x_min":0,"x_max":0,"o":"m 272 1079 b 322 1129 300 1079 322 1101 b 272 1181 322 1158 300 1181 b 221 1129 243 1181 221 1158 b 272 1079 221 1101 243 1079 z m 522 1079 b 572 1129 550 1079 572 1101 b 522 1181 572 1158 550 1181 b 471 1129 493 1181 471 1158 b 522 1079 471 1101 493 1079 z m 194 69 l 194 456 l 639 456 l 639 525 l 194 525 l 194 903 l 674 903 l 674 972 l 121 972 l 121 0 l 681 0 l 681 69 z "},"Ė":{"ha":740,"x_min":0,"x_max":0,"o":"m 397 1074 b 461 1139 433 1074 461 1103 b 397 1204 461 1175 433 1204 b 332 1139 360 1204 332 1175 b 397 1074 332 1103 360 1074 z m 194 69 l 194 456 l 639 456 l 639 525 l 194 525 l 194 903 l 674 903 l 674 972 l 121 972 l 121 0 l 681 0 l 681 69 z "},"È":{"ha":740,"x_min":0,"x_max":0,"o":"m 464 1069 l 353 1246 l 269 1246 l 397 1069 z m 194 69 l 194 456 l 639 456 l 639 525 l 194 525 l 194 903 l 674 903 l 674 972 l 121 972 l 121 0 l 681 0 l 681 69 z "},"Ē":{"ha":740,"x_min":0,"x_max":0,"o":"m 572 1154 l 221 1154 l 221 1093 l 572 1093 z m 194 69 l 194 456 l 639 456 l 639 525 l 194 525 l 194 903 l 674 903 l 674 972 l 121 972 l 121 0 l 681 0 l 681 69 z "},"Ę":{"ha":742,"x_min":0,"x_max":0,"o":"m 679 0 l 681 0 l 681 69 l 194 69 l 194 456 l 639 456 l 639 525 l 194 525 l 194 903 l 674 903 l 674 972 l 121 972 l 121 0 l 606 0 b 496 -193 532 -67 496 -136 b 606 -293 496 -253 535 -293 b 681 -279 635 -293 658 -289 l 681 -221 b 621 -233 661 -229 643 -233 b 564 -182 586 -233 564 -217 b 679 0 564 -129 608 -64 z "},"F":{"ha":719,"x_min":0,"x_max":0,"o":"m 660 903 l 660 972 l 121 972 l 121 0 l 194 0 l 194 444 l 643 444 l 643 514 l 194 514 l 194 903 z "},"G":{"ha":1110,"x_min":0,"x_max":0,"o":"m 1046 453 l 558 453 l 558 383 l 971 383 b 576 56 956 201 813 56 b 139 486 315 56 139 247 b 571 917 139 725 315 917 b 924 714 724 917 860 836 l 989 753 b 571 988 908 893 751 988 b 65 486 275 988 65 764 b 576 -15 65 208 275 -15 b 1046 415 867 -15 1046 181 z "},"Ğ":{"ha":1110,"x_min":0,"x_max":0,"o":"m 557 1063 b 742 1232 669 1063 742 1126 l 675 1232 b 557 1124 675 1160 631 1124 b 439 1232 483 1124 439 1160 l 372 1232 b 557 1063 372 1126 446 1063 z m 1046 453 l 558 453 l 558 383 l 971 383 b 576 56 956 201 813 56 b 139 486 315 56 139 247 b 571 917 139 725 315 917 b 924 714 724 917 860 836 l 989 753 b 571 988 908 893 751 988 b 65 486 275 988 65 764 b 576 -15 65 208 275 -15 b 1046 415 867 -15 1046 181 z "},"Ģ":{"ha":1110,"x_min":0,"x_max":0,"o":"m 1046 453 l 558 453 l 558 383 l 971 383 b 576 56 956 201 813 56 b 139 486 315 56 139 247 b 571 917 139 725 315 917 b 924 714 724 917 860 836 l 989 753 b 571 988 908 893 751 988 b 65 486 275 988 65 764 b 576 -15 65 208 275 -15 b 1046 415 867 -15 1046 181 z m 547 -333 l 597 -333 l 632 -97 l 561 -97 z "},"Ġ":{"ha":1110,"x_min":0,"x_max":0,"o":"m 557 1074 b 621 1139 593 1074 621 1103 b 557 1204 621 1175 593 1204 b 492 1139 519 1204 492 1175 b 557 1074 492 1103 519 1074 z m 1046 453 l 558 453 l 558 383 l 971 383 b 576 56 956 201 813 56 b 139 486 315 56 139 247 b 571 917 139 725 315 917 b 924 714 724 917 860 836 l 989 753 b 571 988 908 893 751 988 b 65 486 275 988 65 764 b 576 -15 65 208 275 -15 b 1046 415 867 -15 1046 181 z "},"H":{"ha":954,"x_min":0,"x_max":0,"o":"m 760 972 l 760 535 l 194 535 l 194 972 l 121 972 l 121 0 l 194 0 l 194 465 l 760 465 l 760 0 l 833 0 l 833 972 z "},"Ħ":{"ha":1028,"x_min":0,"x_max":0,"o":"m 963 781 l 871 781 l 871 972 l 796 972 l 796 781 l 232 781 l 232 972 l 157 972 l 157 781 l 65 781 l 65 719 l 157 719 l 157 0 l 232 0 l 232 465 l 796 465 l 796 0 l 871 0 l 871 719 l 963 719 z m 796 535 l 232 535 l 232 719 l 796 719 z "},"I":{"ha":315,"x_min":0,"x_max":0,"o":"m 121 972 l 121 0 l 194 0 l 194 972 z "},"Í":{"ha":315,"x_min":0,"x_max":0,"o":"m 99 1069 l 210 1246 l 293 1246 l 167 1069 z m 121 972 l 121 0 l 194 0 l 194 972 z "},"Î":{"ha":315,"x_min":0,"x_max":0,"o":"m 197 1246 l 115 1246 l -35 1069 l 44 1069 l 157 1201 l 268 1069 l 347 1069 z m 121 0 l 194 0 l 194 972 l 121 972 z "},"Ï":{"ha":315,"x_min":0,"x_max":0,"o":"m 32 1079 b 82 1129 60 1079 82 1101 b 32 1181 82 1158 60 1181 b -19 1129 3 1181 -19 1158 b 32 1079 -19 1101 3 1079 z m 282 1079 b 332 1129 310 1079 332 1101 b 282 1181 332 1158 310 1181 b 231 1129 253 1181 231 1158 b 282 1079 231 1101 253 1079 z m 121 972 l 121 0 l 194 0 l 194 972 z "},"İ":{"ha":315,"x_min":0,"x_max":0,"o":"m 157 1074 b 221 1139 193 1074 221 1103 b 157 1204 221 1175 193 1204 b 92 1139 119 1204 92 1175 b 157 1074 92 1103 119 1074 z m 121 972 l 121 0 l 194 0 l 194 972 z "},"Ì":{"ha":315,"x_min":0,"x_max":0,"o":"m 224 1069 l 157 1069 l 29 1246 l 113 1246 z m 121 972 l 121 0 l 194 0 l 194 972 z "},"Ī":{"ha":315,"x_min":0,"x_max":0,"o":"m -19 1093 l 332 1093 l 332 1154 l -19 1154 z m 121 972 l 121 0 l 194 0 l 194 972 z "},"Į":{"ha":315,"x_min":0,"x_max":0,"o":"m 185 -233 b 129 -182 151 -233 129 -217 b 194 0 129 -119 158 -67 l 194 972 l 121 972 l 121 3 b 60 -193 88 -61 60 -133 b 169 -293 60 -253 99 -293 b 244 -279 199 -293 224 -289 l 244 -221 b 185 -233 225 -229 208 -233 z "},"J":{"ha":768,"x_min":0,"x_max":0,"o":"m 350 -15 b 663 267 522 -15 663 81 l 663 972 l 588 972 l 588 267 b 350 56 588 128 492 56 b 122 185 240 56 157 97 l 60 147 b 350 -15 107 40 217 -15 z "},"K":{"ha":794,"x_min":0,"x_max":0,"o":"m 781 0 l 275 500 l 767 972 l 668 972 l 194 519 l 194 972 l 121 972 l 121 0 l 194 0 l 194 479 l 682 0 z "},"Ķ":{"ha":794,"x_min":0,"x_max":0,"o":"m 275 500 l 767 972 l 668 972 l 194 519 l 194 972 l 121 972 l 121 0 l 194 0 l 194 479 l 682 0 l 781 0 z m 383 -333 l 433 -333 l 468 -97 l 397 -97 z "},"L":{"ha":685,"x_min":0,"x_max":0,"o":"m 194 69 l 194 972 l 121 972 l 121 0 l 653 0 l 653 69 z "},"Ĺ":{"ha":685,"x_min":0,"x_max":0,"o":"m 315 1246 l 232 1246 l 121 1069 l 189 1069 z m 194 69 l 194 972 l 121 972 l 121 0 l 653 0 l 653 69 z "},"Ľ":{"ha":685,"x_min":0,"x_max":0,"o":"m 194 69 l 194 972 l 121 972 l 121 0 l 653 0 l 653 69 z m 449 972 l 379 972 l 365 736 l 415 736 z "},"Ļ":{"ha":685,"x_min":0,"x_max":0,"o":"m 194 69 l 194 972 l 121 972 l 121 0 l 653 0 l 653 69 z m 349 -333 l 399 -333 l 433 -97 l 363 -97 z "},"Ł":{"ha":708,"x_min":0,"x_max":0,"o":"m 218 69 l 218 390 l 472 540 l 472 608 l 218 458 l 218 972 l 144 972 l 144 415 l 60 365 l 60 297 l 144 347 l 144 0 l 676 0 l 676 69 z "},"M":{"ha":1121,"x_min":0,"x_max":0,"o":"m 1000 972 l 907 972 l 560 397 l 213 972 l 121 972 l 121 0 l 194 0 l 194 864 l 554 267 l 567 267 l 926 864 l 926 0 l 1000 0 z "},"N":{"ha":954,"x_min":0,"x_max":0,"o":"m 760 972 l 760 136 l 185 972 l 121 972 l 121 0 l 194 0 l 194 836 l 768 0 l 833 0 l 833 972 z "},"Ń":{"ha":954,"x_min":0,"x_max":0,"o":"m 414 1069 l 525 1246 l 608 1246 l 482 1069 z m 760 972 l 760 136 l 185 972 l 121 972 l 121 0 l 194 0 l 194 836 l 768 0 l 833 0 l 833 972 z "},"Ň":{"ha":954,"x_min":0,"x_max":0,"o":"m 431 1069 l 514 1069 l 664 1246 l 583 1246 l 472 1114 l 361 1246 l 281 1246 z m 760 972 l 760 136 l 185 972 l 121 972 l 121 0 l 194 0 l 194 836 l 768 0 l 833 0 l 833 972 z "},"Ņ":{"ha":954,"x_min":0,"x_max":0,"o":"m 760 972 l 760 136 l 185 972 l 121 972 l 121 0 l 194 0 l 194 836 l 768 0 l 833 0 l 833 972 z m 475 -333 l 425 -333 l 439 -97 l 510 -97 z "},"Ŋ":{"ha":954,"x_min":0,"x_max":0,"o":"m 760 972 l 760 136 l 185 972 l 121 972 l 121 0 l 194 0 l 194 836 l 760 13 l 760 0 b 549 -207 760 -164 679 -207 l 549 -278 b 833 0 710 -278 833 -211 l 833 972 z "},"Ñ":{"ha":954,"x_min":0,"x_max":0,"o":"m 283 1088 l 344 1088 b 469 1126 344 1196 392 1193 b 661 1229 565 1043 661 1074 l 600 1229 b 475 1190 600 1122 553 1124 b 283 1088 379 1274 283 1244 z m 760 972 l 760 136 l 185 972 l 121 972 l 121 0 l 194 0 l 194 836 l 768 0 l 833 0 l 833 972 z "},"O":{"ha":1133,"x_min":0,"x_max":0,"o":"m 567 -15 b 1068 486 847 -15 1068 208 b 567 988 1068 764 847 988 b 65 486 286 988 65 764 b 567 -15 65 208 286 -15 z m 567 56 b 139 486 326 56 139 247 b 567 917 139 725 326 917 b 994 486 807 917 994 725 b 567 56 994 247 807 56 z "},"Ó":{"ha":1133,"x_min":0,"x_max":0,"o":"m 508 1069 l 619 1246 l 703 1246 l 576 1069 z m 567 -15 b 1068 486 847 -15 1068 208 b 567 988 1068 764 847 988 b 65 486 286 988 65 764 b 567 -15 65 208 286 -15 z m 567 56 b 139 486 326 56 139 247 b 567 917 139 725 326 917 b 994 486 807 917 994 725 b 567 56 994 247 807 56 z "},"Ô":{"ha":1133,"x_min":0,"x_max":0,"o":"m 567 1201 l 678 1069 l 757 1069 l 607 1246 l 525 1246 l 375 1069 l 454 1069 z m 567 988 b 65 486 286 988 65 764 b 567 -15 65 208 286 -15 b 1068 486 847 -15 1068 208 b 567 988 1068 764 847 988 z m 567 56 b 139 486 326 56 139 247 b 567 917 139 725 326 917 b 994 486 807 917 994 725 b 567 56 994 247 807 56 z "},"Ö":{"ha":1133,"x_min":0,"x_max":0,"o":"m 442 1079 b 492 1129 469 1079 492 1101 b 442 1181 492 1158 469 1181 b 390 1129 413 1181 390 1158 b 442 1079 390 1101 413 1079 z m 692 1079 b 742 1129 719 1079 742 1101 b 692 1181 742 1158 719 1181 b 640 1129 663 1181 640 1158 b 692 1079 640 1101 663 1079 z m 567 -15 b 1068 486 847 -15 1068 208 b 567 988 1068 764 847 988 b 65 486 286 988 65 764 b 567 -15 65 208 286 -15 z m 567 56 b 139 486 326 56 139 247 b 567 917 139 725 326 917 b 994 486 807 917 994 725 b 567 56 994 247 807 56 z "},"Ò":{"ha":1133,"x_min":0,"x_max":0,"o":"m 633 1069 l 567 1069 l 439 1246 l 522 1246 z m 567 -15 b 1068 486 847 -15 1068 208 b 567 988 1068 764 847 988 b 65 486 286 988 65 764 b 567 -15 65 208 286 -15 z m 567 56 b 139 486 326 56 139 247 b 567 917 139 725 326 917 b 994 486 807 917 994 725 b 567 56 994 247 807 56 z "},"Ő":{"ha":1133,"x_min":0,"x_max":0,"o":"m 396 1069 l 493 1250 l 571 1250 l 467 1069 z m 593 1069 l 704 1250 l 782 1250 l 664 1069 z m 567 -15 b 1068 486 847 -15 1068 208 b 567 988 1068 764 847 988 b 65 486 286 988 65 764 b 567 -15 65 208 286 -15 z m 567 56 b 139 486 326 56 139 247 b 567 917 139 725 326 917 b 994 486 807 917 994 725 b 567 56 994 247 807 56 z "},"Ō":{"ha":1133,"x_min":0,"x_max":0,"o":"m 390 1093 l 742 1093 l 742 1154 l 390 1154 z m 567 -15 b 1068 486 847 -15 1068 208 b 567 988 1068 764 847 988 b 65 486 286 988 65 764 b 567 -15 65 208 286 -15 z m 567 56 b 139 486 326 56 139 247 b 567 917 139 725 326 917 b 994 486 807 917 994 725 b 567 56 994 247 807 56 z "},"Ø":{"ha":1147,"x_min":0,"x_max":0,"o":"m 929 849 l 1010 943 l 960 972 l 886 886 b 581 988 801 950 696 988 b 79 486 300 988 79 764 b 232 124 79 343 138 215 l 151 29 l 203 0 l 276 86 b 581 -15 360 22 465 -15 b 1082 486 861 -15 1082 208 b 929 849 1082 629 1024 757 z m 153 486 b 581 917 153 725 340 917 b 839 831 678 917 768 885 l 279 178 b 153 486 201 257 153 365 z m 581 56 b 324 140 483 56 394 88 l 882 793 b 1008 486 960 715 1008 607 b 581 56 1008 247 821 56 z "},"Õ":{"ha":1133,"x_min":0,"x_max":0,"o":"m 378 1088 l 439 1088 b 564 1126 439 1196 486 1193 b 756 1229 660 1043 756 1074 l 694 1229 b 569 1190 694 1122 647 1124 b 378 1088 474 1274 378 1244 z m 567 -15 b 1068 486 847 -15 1068 208 b 567 988 1068 764 847 988 b 65 486 286 988 65 764 b 567 -15 65 208 286 -15 z m 567 56 b 139 486 326 56 139 247 b 567 917 139 725 326 917 b 994 486 807 917 994 725 b 567 56 994 247 807 56 z "},"Œ":{"ha":1267,"x_min":0,"x_max":0,"o":"m 757 69 l 757 456 l 1174 456 l 1174 525 l 757 525 l 757 903 l 1200 903 l 1200 972 l 683 972 b 553 988 644 982 601 988 b 65 486 267 988 65 764 b 553 -15 65 208 267 -15 b 683 0 601 -15 644 -10 l 1207 0 l 1207 69 z m 683 75 b 553 56 644 63 601 56 b 139 486 307 56 139 247 b 553 917 139 725 307 917 b 683 897 601 917 644 910 z "},"P":{"ha":815,"x_min":0,"x_max":0,"o":"m 451 972 l 121 972 l 121 0 l 194 0 l 194 371 l 451 371 b 754 671 626 371 754 500 b 451 972 754 843 626 972 z m 451 440 l 194 440 l 194 903 l 451 903 b 681 671 585 903 681 806 b 451 440 681 538 585 440 z "},"Þ":{"ha":815,"x_min":0,"x_max":0,"o":"m 451 788 l 194 788 l 194 972 l 121 972 l 121 0 l 194 0 l 194 185 l 451 185 b 754 486 626 185 754 315 b 451 788 754 658 626 788 z m 451 254 l 194 254 l 194 718 l 451 718 b 681 486 585 718 681 621 b 451 254 681 353 585 254 z "},"Q":{"ha":1140,"x_min":0,"x_max":0,"o":"m 1068 486 b 567 988 1068 764 844 988 b 65 486 289 988 65 764 b 567 -15 65 208 289 -15 b 863 81 678 -15 781 21 l 979 -33 l 1029 13 l 915 125 b 1068 486 1010 217 1068 344 z m 567 56 b 139 486 329 56 139 247 b 567 917 139 725 329 917 b 994 486 804 917 994 725 b 864 175 994 364 944 254 l 646 390 l 596 344 l 811 132 b 567 56 742 83 658 56 z "},"R":{"ha":851,"x_min":0,"x_max":0,"o":"m 735 0 l 819 0 l 578 408 b 792 685 701 442 792 553 b 504 972 792 843 663 972 l 121 972 l 121 0 l 194 0 l 194 399 l 501 399 z m 194 903 l 504 903 b 718 685 622 903 718 806 b 504 468 718 565 622 468 l 194 468 z "},"Ŕ":{"ha":851,"x_min":0,"x_max":0,"o":"m 571 1246 l 488 1246 l 376 1069 l 444 1069 z m 735 0 l 819 0 l 578 408 b 792 685 701 442 792 553 b 504 972 792 843 663 972 l 121 972 l 121 0 l 194 0 l 194 399 l 501 399 z m 194 903 l 504 903 b 718 685 622 903 718 806 b 504 468 718 565 622 468 l 194 468 z "},"Ř":{"ha":851,"x_min":0,"x_max":0,"o":"m 393 1069 l 476 1069 l 626 1246 l 546 1246 l 435 1114 l 324 1246 l 243 1246 z m 735 0 l 819 0 l 578 408 b 792 685 701 442 792 553 b 504 972 792 843 663 972 l 121 972 l 121 0 l 194 0 l 194 399 l 501 399 z m 194 903 l 504 903 b 718 685 622 903 718 806 b 504 468 718 565 622 468 l 194 468 z "},"Ŗ":{"ha":851,"x_min":0,"x_max":0,"o":"m 819 0 l 578 408 b 792 685 701 442 792 553 b 504 972 792 843 663 972 l 121 972 l 121 0 l 194 0 l 194 399 l 501 399 l 735 0 z m 194 903 l 504 903 b 718 685 622 903 718 806 b 504 468 718 565 622 468 l 194 468 z m 415 -333 l 465 -333 l 500 -97 l 429 -97 z "},"S":{"ha":797,"x_min":0,"x_max":0,"o":"m 418 -15 b 738 251 611 -15 738 90 b 415 531 738 419 588 474 b 178 729 276 576 178 613 b 397 917 178 838 263 917 b 647 749 536 917 611 836 l 710 783 b 397 988 663 896 557 988 b 103 726 232 988 103 886 b 411 458 103 557 249 511 b 663 250 560 411 663 367 b 418 56 663 139 581 56 b 126 251 258 56 160 135 l 63 214 b 418 -15 107 76 236 -15 z "},"Ś":{"ha":797,"x_min":0,"x_max":0,"o":"m 331 1069 l 442 1246 l 525 1246 l 399 1069 z m 418 -15 b 738 251 611 -15 738 90 b 415 531 738 419 588 474 b 178 729 276 576 178 613 b 397 917 178 838 263 917 b 647 749 536 917 611 836 l 710 783 b 397 988 663 896 557 988 b 103 726 232 988 103 886 b 411 458 103 557 249 511 b 663 250 560 411 663 367 b 418 56 663 139 581 56 b 126 251 258 56 160 135 l 63 214 b 418 -15 107 76 236 -15 z "},"Š":{"ha":797,"x_min":0,"x_max":0,"o":"m 347 1069 l 431 1069 l 581 1246 l 500 1246 l 389 1114 l 278 1246 l 197 1246 z m 415 531 b 178 729 276 576 178 613 b 397 917 178 838 263 917 b 647 749 536 917 611 836 l 710 783 b 397 988 663 896 557 988 b 103 726 232 988 103 886 b 411 458 103 557 249 511 b 663 250 560 411 663 367 b 418 56 663 139 581 56 b 126 251 258 56 160 135 l 63 214 b 418 -15 107 76 236 -15 b 738 251 611 -15 738 90 b 415 531 738 419 588 474 z "},"Ş":{"ha":797,"x_min":0,"x_max":0,"o":"m 738 251 b 415 531 738 419 588 474 b 178 729 276 576 178 613 b 397 917 178 838 263 917 b 647 749 536 917 611 836 l 710 783 b 397 988 663 896 557 988 b 103 726 232 988 103 886 b 411 458 103 557 249 511 b 663 250 560 411 663 367 b 418 56 663 139 581 56 b 126 251 258 56 160 135 l 63 214 b 368 -12 103 89 213 3 l 368 -122 b 496 -182 450 -122 496 -142 b 286 -236 496 -226 426 -250 l 286 -293 b 557 -182 497 -310 557 -250 b 431 -78 557 -122 501 -86 l 431 -15 b 738 251 617 -11 738 94 z "},"Ș":{"ha":797,"x_min":0,"x_max":0,"o":"m 418 -15 b 738 251 611 -15 738 90 b 415 531 738 419 588 474 b 178 729 276 576 178 613 b 397 917 178 838 263 917 b 647 749 536 917 611 836 l 710 783 b 397 988 663 896 557 988 b 103 726 232 988 103 886 b 411 458 103 557 249 511 b 663 250 560 411 663 367 b 418 56 663 139 581 56 b 126 251 258 56 160 135 l 63 214 b 418 -15 107 76 236 -15 z m 417 -333 l 367 -333 l 381 -97 l 451 -97 z "},"T":{"ha":750,"x_min":0,"x_max":0,"o":"m 718 972 l 32 972 l 32 903 l 338 903 l 338 0 l 413 0 l 413 903 l 718 903 z "},"Ŧ":{"ha":750,"x_min":0,"x_max":0,"o":"m 718 903 l 718 972 l 32 972 l 32 903 l 338 903 l 338 519 l 125 519 l 125 453 l 338 453 l 338 0 l 413 0 l 413 453 l 625 453 l 625 519 l 413 519 l 413 903 z "},"Ť":{"ha":750,"x_min":0,"x_max":0,"o":"m 333 1069 l 417 1069 l 567 1246 l 486 1246 l 375 1114 l 264 1246 l 183 1246 z m 718 972 l 32 972 l 32 903 l 338 903 l 338 0 l 413 0 l 413 903 l 718 903 z "},"Ţ":{"ha":750,"x_min":0,"x_max":0,"o":"m 718 972 l 32 972 l 32 903 l 338 903 l 338 0 l 413 0 l 413 903 l 718 903 z m 328 -333 l 378 -333 l 413 -97 l 342 -97 z "},"Ț":{"ha":750,"x_min":0,"x_max":0,"o":"m 718 972 l 32 972 l 32 903 l 338 903 l 338 0 l 413 0 l 413 903 l 718 903 z m 328 -333 l 378 -333 l 413 -97 l 342 -97 z "},"U":{"ha":926,"x_min":0,"x_max":0,"o":"m 463 -15 b 819 325 676 -15 819 119 l 819 972 l 746 972 l 746 325 b 463 56 746 167 647 56 b 181 325 279 56 181 167 l 181 972 l 107 972 l 107 325 b 463 -15 107 119 249 -15 z "},"Ú":{"ha":926,"x_min":0,"x_max":0,"o":"m 403 1069 l 514 1246 l 597 1246 l 471 1069 z m 463 -15 b 819 325 676 -15 819 119 l 819 972 l 746 972 l 746 325 b 463 56 746 167 647 56 b 181 325 279 56 181 167 l 181 972 l 107 972 l 107 325 b 463 -15 107 119 249 -15 z "},"Û":{"ha":926,"x_min":0,"x_max":0,"o":"m 461 1201 l 572 1069 l 651 1069 l 501 1246 l 419 1246 l 269 1069 l 349 1069 z m 746 972 l 746 325 b 463 56 746 167 647 56 b 181 325 279 56 181 167 l 181 972 l 107 972 l 107 325 b 463 -15 107 119 249 -15 b 819 325 676 -15 819 119 l 819 972 z "},"Ü":{"ha":926,"x_min":0,"x_max":0,"o":"m 336 1079 b 386 1129 364 1079 386 1101 b 336 1181 386 1158 364 1181 b 285 1129 307 1181 285 1158 b 336 1079 285 1101 307 1079 z m 586 1079 b 636 1129 614 1079 636 1101 b 586 1181 636 1158 614 1181 b 535 1129 557 1181 535 1158 b 586 1079 535 1101 557 1079 z m 463 -15 b 819 325 676 -15 819 119 l 819 972 l 746 972 l 746 325 b 463 56 746 167 647 56 b 181 325 279 56 181 167 l 181 972 l 107 972 l 107 325 b 463 -15 107 119 249 -15 z "},"Ù":{"ha":926,"x_min":0,"x_max":0,"o":"m 528 1069 l 461 1069 l 333 1246 l 417 1246 z m 463 -15 b 819 325 676 -15 819 119 l 819 972 l 746 972 l 746 325 b 463 56 746 167 647 56 b 181 325 279 56 181 167 l 181 972 l 107 972 l 107 325 b 463 -15 107 119 249 -15 z "},"Ű":{"ha":926,"x_min":0,"x_max":0,"o":"m 290 1069 l 388 1250 l 465 1250 l 361 1069 z m 488 1069 l 599 1250 l 676 1250 l 558 1069 z m 463 -15 b 819 325 676 -15 819 119 l 819 972 l 746 972 l 746 325 b 463 56 746 167 647 56 b 181 325 279 56 181 167 l 181 972 l 107 972 l 107 325 b 463 -15 107 119 249 -15 z "},"Ū":{"ha":926,"x_min":0,"x_max":0,"o":"m 285 1093 l 636 1093 l 636 1154 l 285 1154 z m 463 -15 b 819 325 676 -15 819 119 l 819 972 l 746 972 l 746 325 b 463 56 746 167 647 56 b 181 325 279 56 181 167 l 181 972 l 107 972 l 107 325 b 463 -15 107 119 249 -15 z "},"Ų":{"ha":926,"x_min":0,"x_max":0,"o":"m 746 972 l 746 325 b 463 56 746 167 647 56 b 181 325 279 56 181 167 l 181 972 l 107 972 l 107 325 b 463 -15 107 119 249 -15 b 554 -7 494 -15 525 -12 b 450 -193 483 -74 450 -139 b 560 -293 450 -253 489 -293 b 635 -279 589 -293 614 -289 l 635 -221 b 575 -233 615 -229 599 -233 b 519 -182 542 -233 519 -217 b 697 57 519 -115 567 -60 b 819 325 775 117 819 210 l 819 972 z "},"Ů":{"ha":926,"x_min":0,"x_max":0,"o":"m 460 1000 b 603 1135 546 1000 603 1058 b 460 1269 603 1211 546 1269 b 318 1135 375 1269 318 1211 b 460 1000 318 1058 375 1000 z m 460 1056 b 378 1135 408 1056 378 1089 b 460 1214 378 1181 408 1214 b 544 1135 513 1214 544 1181 b 460 1056 544 1089 513 1056 z m 463 -15 b 819 325 676 -15 819 119 l 819 972 l 746 972 l 746 325 b 463 56 746 167 647 56 b 181 325 279 56 181 167 l 181 972 l 107 972 l 107 325 b 463 -15 107 119 249 -15 z "},"V":{"ha":840,"x_min":0,"x_max":0,"o":"m 381 0 l 458 0 l 821 972 l 742 972 l 419 96 l 99 972 l 18 972 z "},"W":{"ha":1379,"x_min":0,"x_max":0,"o":"m 328 0 l 417 0 l 690 876 l 963 0 l 1051 0 l 1333 972 l 1256 972 l 1006 99 l 733 972 l 646 972 l 375 99 l 124 972 l 46 972 z "},"Ẃ":{"ha":1379,"x_min":0,"x_max":0,"o":"m 600 1069 l 711 1246 l 794 1246 l 668 1069 z m 328 0 l 417 0 l 690 876 l 963 0 l 1051 0 l 1333 972 l 1256 972 l 1006 99 l 733 972 l 646 972 l 375 99 l 124 972 l 46 972 z "},"Ŵ":{"ha":1379,"x_min":0,"x_max":0,"o":"m 658 1201 l 769 1069 l 849 1069 l 699 1246 l 617 1246 l 467 1069 l 546 1069 z m 1256 972 l 1006 99 l 733 972 l 646 972 l 375 99 l 124 972 l 46 972 l 328 0 l 417 0 l 690 876 l 963 0 l 1051 0 l 1333 972 z "},"Ẅ":{"ha":1379,"x_min":0,"x_max":0,"o":"m 533 1079 b 583 1129 561 1079 583 1101 b 533 1181 583 1158 561 1181 b 482 1129 504 1181 482 1158 b 533 1079 482 1101 504 1079 z m 783 1079 b 833 1129 811 1079 833 1101 b 783 1181 833 1158 811 1181 b 732 1129 754 1181 732 1158 b 783 1079 732 1101 754 1079 z m 328 0 l 417 0 l 690 876 l 963 0 l 1051 0 l 1333 972 l 1256 972 l 1006 99 l 733 972 l 646 972 l 375 99 l 124 972 l 46 972 z "},"Ẁ":{"ha":1379,"x_min":0,"x_max":0,"o":"m 725 1069 l 658 1069 l 531 1246 l 614 1246 z m 328 0 l 417 0 l 690 876 l 963 0 l 1051 0 l 1333 972 l 1256 972 l 1006 99 l 733 972 l 646 972 l 375 99 l 124 972 l 46 972 z "},"X":{"ha":796,"x_min":0,"x_max":0,"o":"m 764 0 l 440 500 l 746 972 l 661 972 l 399 565 l 135 972 l 50 972 l 356 500 l 32 0 l 118 0 l 399 433 l 679 0 z "},"Y":{"ha":810,"x_min":0,"x_max":0,"o":"m 796 972 l 713 972 l 406 471 l 97 972 l 14 972 l 368 400 l 368 0 l 442 0 l 442 400 z "},"Ý":{"ha":810,"x_min":0,"x_max":0,"o":"m 538 1246 l 454 1246 l 343 1069 l 411 1069 z m 796 972 l 713 972 l 406 471 l 97 972 l 14 972 l 368 400 l 368 0 l 442 0 l 442 400 z "},"Ŷ":{"ha":810,"x_min":0,"x_max":0,"o":"m 401 1201 l 513 1069 l 592 1069 l 442 1246 l 360 1246 l 210 1069 l 289 1069 z m 796 972 l 713 972 l 406 471 l 97 972 l 14 972 l 368 400 l 368 0 l 442 0 l 442 400 z "},"Ÿ":{"ha":810,"x_min":0,"x_max":0,"o":"m 276 1079 b 326 1129 304 1079 326 1101 b 276 1181 326 1158 304 1181 b 225 1129 247 1181 225 1158 b 276 1079 225 1101 247 1079 z m 526 1079 b 576 1129 554 1079 576 1101 b 526 1181 576 1158 554 1181 b 475 1129 497 1181 475 1158 b 526 1079 475 1101 497 1079 z m 796 972 l 713 972 l 406 471 l 97 972 l 14 972 l 368 400 l 368 0 l 442 0 l 442 400 z "},"Ỳ":{"ha":810,"x_min":0,"x_max":0,"o":"m 468 1069 l 357 1246 l 274 1246 l 401 1069 z m 796 972 l 713 972 l 406 471 l 97 972 l 14 972 l 368 400 l 368 0 l 442 0 l 442 400 z "},"Z":{"ha":726,"x_min":0,"x_max":0,"o":"m 142 69 l 667 903 l 667 972 l 74 972 l 74 903 l 585 903 l 60 69 l 60 0 l 681 0 l 681 69 z "},"Ź":{"ha":726,"x_min":0,"x_max":0,"o":"m 507 1246 l 424 1246 l 313 1069 l 381 1069 z m 142 69 l 667 903 l 667 972 l 74 972 l 74 903 l 585 903 l 60 69 l 60 0 l 681 0 l 681 69 z "},"Ž":{"ha":726,"x_min":0,"x_max":0,"o":"m 329 1069 l 413 1069 l 563 1246 l 482 1246 l 371 1114 l 260 1246 l 179 1246 z m 142 69 l 667 903 l 667 972 l 74 972 l 74 903 l 585 903 l 60 69 l 60 0 l 681 0 l 681 69 z "},"Ż":{"ha":726,"x_min":0,"x_max":0,"o":"m 371 1074 b 435 1139 407 1074 435 1103 b 371 1204 435 1175 407 1204 b 306 1139 333 1204 306 1175 b 371 1074 306 1103 333 1074 z m 142 69 l 667 903 l 667 972 l 74 972 l 74 903 l 585 903 l 60 69 l 60 0 l 681 0 l 681 69 z "},"a":{"ha":896,"x_min":0,"x_max":0,"o":"m 718 694 l 718 538 b 419 710 660 642 553 710 b 60 347 222 710 60 553 b 419 -15 60 142 222 -15 b 718 157 553 -15 660 53 l 718 0 l 789 0 l 789 694 z m 425 51 b 131 347 260 51 131 182 b 425 643 131 513 260 643 b 718 347 590 643 718 513 b 425 51 718 182 590 51 z "},"á":{"ha":896,"x_min":0,"x_max":0,"o":"m 563 968 l 479 968 l 368 792 l 436 792 z m 718 694 l 718 538 b 419 710 660 642 553 710 b 60 347 222 710 60 553 b 419 -15 60 142 222 -15 b 718 157 553 -15 660 53 l 718 0 l 789 0 l 789 694 z m 425 51 b 131 347 260 51 131 182 b 425 643 131 513 260 643 b 718 347 590 643 718 513 b 425 51 718 182 590 51 z "},"ă":{"ha":896,"x_min":0,"x_max":0,"o":"m 426 785 b 611 954 539 785 611 849 l 544 954 b 426 846 544 882 500 846 b 308 954 353 846 308 882 l 242 954 b 426 785 242 849 315 785 z m 718 694 l 718 538 b 419 710 660 642 553 710 b 60 347 222 710 60 553 b 419 -15 60 142 222 -15 b 718 157 553 -15 660 53 l 718 0 l 789 0 l 789 694 z m 425 51 b 131 347 260 51 131 182 b 425 643 131 513 260 643 b 718 347 590 643 718 513 b 425 51 718 182 590 51 z "},"â":{"ha":896,"x_min":0,"x_max":0,"o":"m 426 924 l 538 792 l 617 792 l 467 968 l 385 968 l 235 792 l 314 792 z m 718 694 l 718 538 b 419 710 660 642 553 710 b 60 347 222 710 60 553 b 419 -15 60 142 222 -15 b 718 157 553 -15 660 53 l 718 0 l 789 0 l 789 694 z m 425 51 b 131 347 260 51 131 182 b 425 643 131 513 260 643 b 718 347 590 643 718 513 b 425 51 718 182 590 51 z "},"ä":{"ha":896,"x_min":0,"x_max":0,"o":"m 301 801 b 351 851 329 801 351 824 b 301 903 351 881 329 903 b 250 851 272 903 250 881 b 301 801 250 824 272 801 z m 551 801 b 601 851 579 801 601 824 b 551 903 601 881 579 903 b 500 851 522 903 500 881 b 551 801 500 824 522 801 z m 718 694 l 718 538 b 419 710 660 642 553 710 b 60 347 222 710 60 553 b 419 -15 60 142 222 -15 b 718 157 553 -15 660 53 l 718 0 l 789 0 l 789 694 z m 425 51 b 131 347 260 51 131 182 b 425 643 131 513 260 643 b 718 347 590 643 718 513 b 425 51 718 182 590 51 z "},"à":{"ha":896,"x_min":0,"x_max":0,"o":"m 493 792 l 382 968 l 299 968 l 426 792 z m 718 694 l 718 538 b 419 710 660 642 553 710 b 60 347 222 710 60 553 b 419 -15 60 142 222 -15 b 718 157 553 -15 660 53 l 718 0 l 789 0 l 789 694 z m 425 51 b 131 347 260 51 131 182 b 425 643 131 513 260 643 b 718 347 590 643 718 513 b 425 51 718 182 590 51 z "},"ā":{"ha":896,"x_min":0,"x_max":0,"o":"m 601 876 l 250 876 l 250 815 l 601 815 z m 718 694 l 718 538 b 419 710 660 642 553 710 b 60 347 222 710 60 553 b 419 -15 60 142 222 -15 b 718 157 553 -15 660 53 l 718 0 l 789 0 l 789 694 z m 425 51 b 131 347 260 51 131 182 b 425 643 131 513 260 643 b 718 347 590 643 718 513 b 425 51 718 182 590 51 z "},"ą":{"ha":896,"x_min":0,"x_max":0,"o":"m 789 0 l 789 694 l 718 694 l 718 538 b 419 710 660 642 553 710 b 60 347 222 710 60 553 b 419 -15 60 142 222 -15 b 718 157 553 -15 660 53 l 718 14 b 606 -193 639 -67 606 -137 b 714 -293 606 -253 644 -293 b 789 -279 743 -293 767 -289 l 789 -221 b 729 -233 769 -229 751 -233 b 674 -182 696 -233 674 -217 b 789 0 674 -129 718 -64 z m 425 51 b 131 347 260 51 131 182 b 425 643 131 513 260 643 b 718 347 590 643 718 513 b 425 51 718 182 590 51 z "},"å":{"ha":896,"x_min":0,"x_max":0,"o":"m 426 768 b 569 903 513 768 569 826 b 426 1038 569 979 513 1038 b 285 903 342 1038 285 979 b 426 768 285 826 342 768 z m 426 982 b 511 903 479 982 511 949 b 426 824 511 857 479 824 b 344 903 375 824 344 857 b 426 982 344 949 375 982 z m 718 694 l 718 538 b 419 710 660 642 553 710 b 60 347 222 710 60 553 b 419 -15 60 142 222 -15 b 718 157 553 -15 660 53 l 718 0 l 789 0 l 789 694 z m 425 51 b 131 347 260 51 131 182 b 425 643 131 513 260 643 b 718 347 590 643 718 513 b 425 51 718 182 590 51 z "},"ã":{"ha":896,"x_min":0,"x_max":0,"o":"m 424 849 b 615 951 519 765 615 796 l 554 951 b 429 913 554 844 507 846 b 238 810 333 996 238 967 l 299 810 b 424 849 299 918 346 915 z m 718 694 l 718 538 b 419 710 660 642 553 710 b 60 347 222 710 60 553 b 419 -15 60 142 222 -15 b 718 157 553 -15 660 53 l 718 0 l 789 0 l 789 694 z m 425 51 b 131 347 260 51 131 182 b 425 643 131 513 260 643 b 718 347 590 643 718 513 b 425 51 718 182 590 51 z "},"æ":{"ha":1474,"x_min":0,"x_max":0,"o":"m 1079 710 b 788 533 940 710 840 640 l 788 694 l 718 694 l 718 538 b 419 710 660 642 553 710 b 60 347 222 710 60 553 b 419 -15 60 142 222 -15 b 718 157 553 -15 660 53 l 718 0 l 788 0 l 788 158 b 1088 -15 842 50 947 -15 b 1386 142 1222 -15 1331 47 l 1325 178 b 1079 51 1285 104 1199 51 b 790 311 921 51 806 154 l 1417 311 b 1418 344 1417 322 1418 333 b 1079 710 1418 535 1297 710 z m 425 51 b 131 347 260 51 131 182 b 425 643 131 513 260 643 b 718 347 590 643 718 513 b 425 51 718 182 590 51 z m 1076 643 b 1347 379 1217 643 1332 549 l 790 379 b 1076 643 804 533 914 643 z "},"b":{"ha":896,"x_min":0,"x_max":0,"o":"m 475 710 b 176 533 340 710 233 640 l 176 972 l 107 972 l 107 0 l 176 0 l 176 161 b 475 -15 233 54 340 -15 b 835 347 674 -15 835 142 b 475 710 835 553 674 710 z m 471 51 b 176 347 306 51 176 182 b 471 643 176 513 306 643 b 765 347 636 643 765 513 b 471 51 765 182 636 51 z "},"c":{"ha":779,"x_min":0,"x_max":0,"o":"m 425 -15 b 733 161 561 -15 678 54 l 675 196 b 425 51 629 110 538 51 b 131 347 257 51 131 182 b 425 643 131 513 257 643 b 671 499 536 643 631 586 l 728 532 b 425 710 678 640 561 710 b 60 347 215 710 60 553 b 425 -15 60 142 215 -15 z "},"ć":{"ha":779,"x_min":0,"x_max":0,"o":"m 357 792 l 468 968 l 551 968 l 425 792 z m 425 -15 b 733 161 561 -15 678 54 l 675 196 b 425 51 629 110 538 51 b 131 347 257 51 131 182 b 425 643 131 513 257 643 b 671 499 536 643 631 586 l 728 532 b 425 710 678 640 561 710 b 60 347 215 710 60 553 b 425 -15 60 142 215 -15 z "},"č":{"ha":779,"x_min":0,"x_max":0,"o":"m 374 792 l 457 792 l 607 968 l 526 968 l 415 836 l 304 968 l 224 968 z m 675 196 b 425 51 629 110 538 51 b 131 347 257 51 131 182 b 425 643 131 513 257 643 b 671 499 536 643 631 586 l 728 532 b 425 710 678 640 561 710 b 60 347 215 710 60 553 b 425 -15 60 142 215 -15 b 733 161 561 -15 678 54 z "},"ç":{"ha":779,"x_min":0,"x_max":0,"o":"m 733 161 l 675 196 b 425 51 629 110 538 51 b 131 347 257 51 131 182 b 425 643 131 513 257 643 b 671 499 536 643 631 586 l 728 532 b 425 710 678 640 561 710 b 60 347 215 710 60 553 b 393 -14 60 153 200 1 l 393 -122 b 521 -182 475 -122 521 -142 b 311 -236 521 -226 451 -250 l 311 -293 b 582 -182 522 -310 582 -250 b 456 -78 582 -122 526 -86 l 456 -14 b 733 161 578 -4 682 63 z "},"ċ":{"ha":779,"x_min":0,"x_max":0,"o":"m 415 796 b 479 861 451 796 479 825 b 415 926 479 897 451 926 b 350 861 378 926 350 897 b 415 796 350 825 378 796 z m 425 -15 b 733 161 561 -15 678 54 l 675 196 b 425 51 629 110 538 51 b 131 347 257 51 131 182 b 425 643 131 513 257 643 b 671 499 536 643 631 586 l 728 532 b 425 710 678 640 561 710 b 60 347 215 710 60 553 b 425 -15 60 142 215 -15 z "},"d":{"ha":896,"x_min":0,"x_max":0,"o":"m 719 972 l 719 533 b 421 710 663 640 556 710 b 61 347 222 710 61 553 b 421 -15 61 142 222 -15 b 719 161 556 -15 663 54 l 719 0 l 789 0 l 789 972 z m 425 51 b 131 347 260 51 131 182 b 425 643 131 513 260 643 b 719 347 590 643 719 513 b 425 51 719 182 590 51 z "},"ð":{"ha":815,"x_min":0,"x_max":0,"o":"m 692 514 l 449 840 l 569 915 l 569 979 l 415 885 l 350 972 l 268 972 l 360 850 l 226 768 l 226 704 l 392 806 l 535 615 b 397 646 496 635 451 646 b 60 319 222 646 60 517 b 408 -15 60 114 225 -15 b 756 319 592 -15 756 114 b 692 514 756 396 731 461 z m 408 51 b 131 319 257 51 131 158 b 408 579 131 472 251 579 b 639 475 521 579 592 538 b 685 319 671 432 685 379 b 408 51 685 158 560 51 z "},"ď":{"ha":968,"x_min":0,"x_max":0,"o":"m 719 533 b 421 710 663 640 556 710 b 61 347 222 710 61 553 b 421 -15 61 142 222 -15 b 719 161 556 -15 663 54 l 719 0 l 789 0 l 789 972 l 719 972 z m 907 972 l 893 736 l 943 736 l 976 972 z m 425 51 b 131 347 260 51 131 182 b 425 643 131 513 260 643 b 719 347 590 643 719 513 b 425 51 719 182 590 51 z "},"đ":{"ha":907,"x_min":0,"x_max":0,"o":"m 883 867 l 789 867 l 789 972 l 718 972 l 718 867 l 439 867 l 439 808 l 718 808 l 718 536 b 419 710 661 642 553 710 b 60 347 222 710 60 553 b 419 -15 60 142 222 -15 b 718 158 553 -15 661 53 l 718 0 l 789 0 l 789 808 l 883 808 z m 425 51 b 131 347 260 51 131 182 b 425 643 131 513 260 643 b 718 347 590 643 718 513 b 425 51 718 182 590 51 z "},"e":{"ha":818,"x_min":0,"x_max":0,"o":"m 419 710 b 60 347 207 710 60 551 b 425 -15 60 138 211 -15 b 728 142 563 -15 671 47 l 667 178 b 426 51 626 104 540 51 b 132 311 268 51 149 154 l 761 311 b 763 344 761 322 763 333 b 419 710 763 535 631 710 z m 419 643 b 690 379 556 643 675 549 l 132 379 b 419 643 146 533 261 643 z "},"é":{"ha":818,"x_min":0,"x_max":0,"o":"m 547 968 l 464 968 l 353 792 l 421 792 z m 419 710 b 60 347 207 710 60 551 b 425 -15 60 138 211 -15 b 728 142 563 -15 671 47 l 667 178 b 426 51 626 104 540 51 b 132 311 268 51 149 154 l 761 311 b 763 344 761 322 763 333 b 419 710 763 535 631 710 z m 419 643 b 690 379 556 643 675 549 l 132 379 b 419 643 146 533 261 643 z "},"ě":{"ha":818,"x_min":0,"x_max":0,"o":"m 369 792 l 453 792 l 603 968 l 522 968 l 411 836 l 300 968 l 219 968 z m 419 710 b 60 347 207 710 60 551 b 425 -15 60 138 211 -15 b 728 142 563 -15 671 47 l 667 178 b 426 51 626 104 540 51 b 132 311 268 51 149 154 l 761 311 b 763 344 761 322 763 333 b 419 710 763 535 631 710 z m 419 643 b 690 379 556 643 675 549 l 132 379 b 419 643 146 533 261 643 z "},"ê":{"ha":818,"x_min":0,"x_max":0,"o":"m 411 924 l 522 792 l 601 792 l 451 968 l 369 968 l 219 792 l 299 792 z m 419 710 b 60 347 207 710 60 551 b 425 -15 60 138 211 -15 b 728 142 563 -15 671 47 l 667 178 b 426 51 626 104 540 51 b 132 311 268 51 149 154 l 761 311 b 763 344 761 322 763 333 b 419 710 763 535 631 710 z m 419 643 b 690 379 556 643 675 549 l 132 379 b 419 643 146 533 261 643 z "},"ë":{"ha":818,"x_min":0,"x_max":0,"o":"m 286 801 b 336 851 314 801 336 824 b 286 903 336 881 314 903 b 235 851 257 903 235 881 b 286 801 235 824 257 801 z m 536 801 b 586 851 564 801 586 824 b 536 903 586 881 564 903 b 485 851 507 903 485 881 b 536 801 485 824 507 801 z m 419 710 b 60 347 207 710 60 551 b 425 -15 60 138 211 -15 b 728 142 563 -15 671 47 l 667 178 b 426 51 626 104 540 51 b 132 311 268 51 149 154 l 761 311 b 763 344 761 322 763 333 b 419 710 763 535 631 710 z m 419 643 b 690 379 556 643 675 549 l 132 379 b 419 643 146 533 261 643 z "},"ė":{"ha":818,"x_min":0,"x_max":0,"o":"m 411 796 b 475 861 447 796 475 825 b 411 926 475 897 447 926 b 346 861 374 926 346 897 b 411 796 346 825 374 796 z m 419 710 b 60 347 207 710 60 551 b 425 -15 60 138 211 -15 b 728 142 563 -15 671 47 l 667 178 b 426 51 626 104 540 51 b 132 311 268 51 149 154 l 761 311 b 763 344 761 322 763 333 b 419 710 763 535 631 710 z m 419 643 b 690 379 556 643 675 549 l 132 379 b 419 643 146 533 261 643 z "},"è":{"ha":818,"x_min":0,"x_max":0,"o":"m 478 792 l 367 968 l 283 968 l 411 792 z m 419 710 b 60 347 207 710 60 551 b 425 -15 60 138 211 -15 b 728 142 563 -15 671 47 l 667 178 b 426 51 626 104 540 51 b 132 311 268 51 149 154 l 761 311 b 763 344 761 322 763 333 b 419 710 763 535 631 710 z m 419 643 b 690 379 556 643 675 549 l 132 379 b 419 643 146 533 261 643 z "},"ē":{"ha":818,"x_min":0,"x_max":0,"o":"m 586 876 l 235 876 l 235 815 l 586 815 z m 419 710 b 60 347 207 710 60 551 b 425 -15 60 138 211 -15 b 728 142 563 -15 671 47 l 667 178 b 426 51 626 104 540 51 b 132 311 268 51 149 154 l 761 311 b 763 344 761 322 763 333 b 419 710 763 535 631 710 z m 419 643 b 690 379 556 643 675 549 l 132 379 b 419 643 146 533 261 643 z "},"ę":{"ha":818,"x_min":0,"x_max":0,"o":"m 419 710 b 60 347 207 710 60 551 b 425 -15 60 138 211 -15 b 540 1 467 -15 506 -10 b 436 -193 467 -75 436 -143 b 544 -293 436 -253 475 -293 b 621 -279 574 -293 599 -289 l 621 -221 b 561 -233 601 -229 583 -233 b 504 -182 526 -233 504 -217 b 674 76 504 -131 549 -62 b 728 142 696 96 713 118 l 667 178 b 426 51 626 104 540 51 b 132 311 268 51 149 154 l 761 311 b 763 344 761 322 763 333 b 419 710 763 535 631 710 z m 419 643 b 690 379 556 643 675 549 l 132 379 b 419 643 146 533 261 643 z "},"f":{"ha":435,"x_min":0,"x_max":0,"o":"m 435 921 l 435 988 b 157 732 253 1001 157 903 l 157 694 l 38 694 l 38 626 l 157 626 l 157 0 l 228 0 l 228 626 l 435 626 l 435 694 l 228 694 l 228 732 b 435 921 228 867 293 932 z "},"g":{"ha":900,"x_min":0,"x_max":0,"o":"m 724 694 l 724 533 b 425 710 667 640 560 710 b 65 347 226 710 65 553 b 425 -15 65 142 226 -15 b 724 161 560 -15 667 54 l 724 33 b 447 -226 724 -125 621 -226 b 181 -92 294 -226 217 -165 l 119 -126 b 447 -293 169 -228 285 -293 b 793 33 639 -293 793 -175 l 793 694 z m 429 51 b 135 347 264 51 135 182 b 429 643 135 513 264 643 b 724 347 594 643 724 513 b 429 51 724 182 594 51 z "},"ğ":{"ha":900,"x_min":0,"x_max":0,"o":"m 438 785 b 622 954 550 785 622 849 l 556 954 b 438 846 556 882 511 846 b 319 954 364 846 319 882 l 253 954 b 438 785 253 849 326 785 z m 724 694 l 724 533 b 425 710 667 640 560 710 b 65 347 226 710 65 553 b 425 -15 65 142 226 -15 b 724 161 560 -15 667 54 l 724 33 b 447 -226 724 -125 621 -226 b 181 -92 294 -226 217 -165 l 119 -126 b 447 -293 169 -228 285 -293 b 793 33 639 -293 793 -175 l 793 694 z m 429 51 b 135 347 264 51 135 182 b 429 643 135 513 264 643 b 724 347 594 643 724 513 b 429 51 724 182 594 51 z "},"ģ":{"ha":900,"x_min":0,"x_max":0,"o":"m 478 1056 l 428 1056 l 393 819 l 464 819 z m 724 694 l 724 533 b 425 710 667 640 560 710 b 65 347 226 710 65 553 b 425 -15 65 142 226 -15 b 724 161 560 -15 667 54 l 724 33 b 447 -226 724 -125 621 -226 b 181 -92 294 -226 217 -165 l 119 -126 b 447 -293 169 -228 285 -293 b 793 33 639 -293 793 -175 l 793 694 z m 429 51 b 135 347 264 51 135 182 b 429 643 135 513 264 643 b 724 347 594 643 724 513 b 429 51 724 182 594 51 z "},"ġ":{"ha":900,"x_min":0,"x_max":0,"o":"m 438 796 b 501 861 474 796 501 825 b 438 926 501 897 474 926 b 372 861 400 926 372 897 b 438 796 372 825 400 796 z m 724 694 l 724 533 b 425 710 667 640 560 710 b 65 347 226 710 65 553 b 425 -15 65 142 226 -15 b 724 161 560 -15 667 54 l 724 33 b 447 -226 724 -125 621 -226 b 181 -92 294 -226 217 -165 l 119 -126 b 447 -293 169 -228 285 -293 b 793 33 639 -293 793 -175 l 793 694 z m 429 51 b 135 347 264 51 135 182 b 429 643 135 513 264 643 b 724 347 594 643 724 513 b 429 51 724 182 594 51 z "},"h":{"ha":783,"x_min":0,"x_max":0,"o":"m 425 710 b 176 563 318 710 229 665 l 176 972 l 107 972 l 107 0 l 176 0 l 176 367 b 419 643 176 554 283 643 b 624 432 550 643 624 560 l 624 0 l 694 0 l 694 432 b 425 710 694 600 590 710 z "},"ħ":{"ha":801,"x_min":0,"x_max":0,"o":"m 443 710 b 196 565 338 710 249 665 l 196 808 l 413 808 l 413 867 l 196 867 l 196 972 l 125 972 l 125 867 l 24 867 l 24 808 l 125 808 l 125 0 l 196 0 l 196 367 b 438 643 196 554 303 643 b 643 432 568 643 643 560 l 643 0 l 713 0 l 713 432 b 443 710 713 600 608 710 z "},"i":{"ha":283,"x_min":0,"x_max":0,"o":"m 142 863 b 197 918 172 863 197 888 b 142 972 197 947 172 972 b 86 918 111 972 86 947 b 142 863 86 888 111 863 z m 107 0 l 176 0 l 176 694 l 107 694 z "},"ı":{"ha":283,"x_min":0,"x_max":0,"o":"m 107 0 l 176 0 l 176 694 l 107 694 z "},"í":{"ha":283,"x_min":0,"x_max":0,"o":"m 104 792 l 181 968 l 265 968 l 172 792 z m 107 0 l 176 0 l 176 694 l 107 694 z "},"î":{"ha":283,"x_min":0,"x_max":0,"o":"m 183 968 l 100 968 l -17 792 l 63 792 l 142 911 l 221 792 l 300 792 z m 107 0 l 176 0 l 176 694 l 107 694 z "},"ï":{"ha":283,"x_min":0,"x_max":0,"o":"m 49 801 b 100 851 78 801 100 824 b 49 903 100 881 78 903 b -1 851 21 903 -1 881 b 49 801 -1 824 21 801 z m 235 801 b 285 851 263 801 285 824 b 235 903 285 881 263 903 b 183 851 206 903 183 881 b 235 801 183 824 206 801 z m 107 0 l 176 0 l 176 694 l 107 694 z "},"ì":{"ha":283,"x_min":0,"x_max":0,"o":"m 178 792 l 110 792 l 18 968 l 101 968 z m 176 0 l 176 694 l 107 694 l 107 0 z "},"ī":{"ha":283,"x_min":0,"x_max":0,"o":"m 13 815 l 271 815 l 271 876 l 13 876 z m 107 0 l 176 0 l 176 694 l 107 694 z "},"į":{"ha":283,"x_min":0,"x_max":0,"o":"m 142 863 b 197 918 172 863 197 888 b 142 972 197 947 172 972 b 86 918 111 972 86 947 b 142 863 86 888 111 863 z m 171 -233 b 115 -171 138 -233 115 -206 b 176 0 115 -118 138 -67 l 176 694 l 107 694 l 107 8 b 46 -182 61 -78 46 -131 b 156 -293 46 -242 85 -293 b 231 -279 185 -293 210 -289 l 231 -221 b 171 -233 211 -229 194 -233 z "},"j":{"ha":310,"x_min":0,"x_max":0,"o":"m 168 972 b 113 918 138 972 113 947 b 168 863 113 888 138 863 b 224 918 199 863 224 888 b 168 972 224 947 199 972 z m 133 -79 b -28 -226 133 -190 82 -237 l -28 -293 b 203 -79 122 -307 203 -226 l 203 694 l 133 694 z "},"k":{"ha":671,"x_min":0,"x_max":0,"o":"m 639 0 l 251 361 l 625 694 l 528 694 l 176 379 l 176 972 l 107 972 l 107 0 l 176 0 l 176 342 l 544 0 z "},"ķ":{"ha":671,"x_min":0,"x_max":0,"o":"m 251 361 l 625 694 l 528 694 l 176 379 l 176 972 l 107 972 l 107 0 l 176 0 l 176 342 l 544 0 l 639 0 z m 317 -333 l 367 -333 l 401 -97 l 331 -97 z "},"l":{"ha":283,"x_min":0,"x_max":0,"o":"m 107 0 l 176 0 l 176 1014 l 107 1014 z "},"ĺ":{"ha":283,"x_min":0,"x_max":0,"o":"m 106 1069 l 217 1246 l 300 1246 l 174 1069 z m 107 0 l 176 0 l 176 1014 l 107 1014 z "},"ľ":{"ha":357,"x_min":0,"x_max":0,"o":"m 107 0 l 176 0 l 176 1014 l 107 1014 z m 332 778 l 282 778 l 296 1014 l 365 1014 z "},"ļ":{"ha":283,"x_min":0,"x_max":0,"o":"m 107 0 l 176 0 l 176 1014 l 107 1014 z m 144 -333 l 94 -333 l 108 -97 l 179 -97 z "},"ł":{"ha":333,"x_min":0,"x_max":0,"o":"m 306 629 l 201 558 l 201 1014 l 132 1014 l 132 510 l 28 439 l 28 371 l 132 442 l 132 0 l 201 0 l 201 490 l 306 561 z "},"m":{"ha":1190,"x_min":0,"x_max":0,"o":"m 849 710 b 617 568 756 710 667 665 b 400 710 581 660 501 710 b 176 575 311 710 228 671 l 176 694 l 107 694 l 107 0 l 176 0 l 176 388 b 392 643 176 565 278 643 b 569 440 499 643 569 572 l 569 0 l 639 0 l 639 388 b 847 643 639 565 731 643 b 1032 440 956 643 1032 572 l 1032 0 l 1101 0 l 1101 440 b 849 710 1101 614 996 710 z "},"n":{"ha":783,"x_min":0,"x_max":0,"o":"m 425 710 b 176 563 318 710 229 665 l 176 694 l 107 694 l 107 0 l 176 0 l 176 367 b 419 643 176 554 283 643 b 624 432 550 643 624 560 l 624 0 l 694 0 l 694 432 b 425 710 694 600 590 710 z "},"ń":{"ha":783,"x_min":0,"x_max":0,"o":"m 542 968 l 458 968 l 347 792 l 415 792 z m 425 710 b 176 563 318 710 229 665 l 176 694 l 107 694 l 107 0 l 176 0 l 176 367 b 419 643 176 554 283 643 b 624 432 550 643 624 560 l 624 0 l 694 0 l 694 432 b 425 710 694 600 590 710 z "},"ň":{"ha":783,"x_min":0,"x_max":0,"o":"m 364 792 l 447 792 l 597 968 l 517 968 l 406 836 l 294 968 l 214 968 z m 425 710 b 176 563 318 710 229 665 l 176 694 l 107 694 l 107 0 l 176 0 l 176 367 b 419 643 176 554 283 643 b 624 432 550 643 624 560 l 624 0 l 694 0 l 694 432 b 425 710 694 600 590 710 z "},"ņ":{"ha":783,"x_min":0,"x_max":0,"o":"m 425 710 b 176 563 318 710 229 665 l 176 694 l 107 694 l 107 0 l 176 0 l 176 367 b 419 643 176 554 283 643 b 624 432 550 643 624 560 l 624 0 l 694 0 l 694 432 b 425 710 694 600 590 710 z m 363 -333 l 413 -333 l 447 -97 l 376 -97 z "},"ŋ":{"ha":783,"x_min":0,"x_max":0,"o":"m 425 710 b 176 563 318 710 229 665 l 176 694 l 107 694 l 107 0 l 176 0 l 176 367 b 419 643 176 554 283 643 b 624 432 550 643 624 560 l 624 -79 b 464 -226 624 -190 574 -237 l 464 -293 b 694 -79 614 -307 694 -226 l 694 432 b 425 710 694 600 590 710 z "},"ñ":{"ha":783,"x_min":0,"x_max":0,"o":"m 403 849 b 594 951 499 765 594 796 l 533 951 b 408 913 533 844 486 846 b 217 810 313 996 217 967 l 278 810 b 403 849 278 918 325 915 z m 425 710 b 176 563 318 710 229 665 l 176 694 l 107 694 l 107 0 l 176 0 l 176 367 b 419 643 176 554 283 643 b 624 432 550 643 624 560 l 624 0 l 694 0 l 694 432 b 425 710 694 600 590 710 z "},"o":{"ha":849,"x_min":0,"x_max":0,"o":"m 425 -15 b 789 347 626 -15 789 142 b 425 710 789 553 626 710 b 60 347 222 710 60 553 b 425 -15 60 142 222 -15 z m 425 51 b 131 347 260 51 131 182 b 425 643 131 513 260 643 b 718 347 590 643 718 513 b 425 51 718 182 590 51 z "},"ó":{"ha":849,"x_min":0,"x_max":0,"o":"m 363 792 l 474 968 l 557 968 l 431 792 z m 425 -15 b 789 347 626 -15 789 142 b 425 710 789 553 626 710 b 60 347 222 710 60 553 b 425 -15 60 142 222 -15 z m 425 51 b 131 347 260 51 131 182 b 425 643 131 513 260 643 b 718 347 590 643 718 513 b 425 51 718 182 590 51 z "},"ô":{"ha":849,"x_min":0,"x_max":0,"o":"m 421 924 l 532 792 l 611 792 l 461 968 l 379 968 l 229 792 l 308 792 z m 425 710 b 60 347 222 710 60 553 b 425 -15 60 142 222 -15 b 789 347 626 -15 789 142 b 425 710 789 553 626 710 z m 425 51 b 131 347 260 51 131 182 b 425 643 131 513 260 643 b 718 347 590 643 718 513 b 425 51 718 182 590 51 z "},"ö":{"ha":849,"x_min":0,"x_max":0,"o":"m 296 801 b 346 851 324 801 346 824 b 296 903 346 881 324 903 b 244 851 267 903 244 881 b 296 801 244 824 267 801 z m 546 801 b 596 851 574 801 596 824 b 546 903 596 881 574 903 b 494 851 517 903 494 881 b 546 801 494 824 517 801 z m 425 -15 b 789 347 626 -15 789 142 b 425 710 789 553 626 710 b 60 347 222 710 60 553 b 425 -15 60 142 222 -15 z m 425 51 b 131 347 260 51 131 182 b 425 643 131 513 260 643 b 718 347 590 643 718 513 b 425 51 718 182 590 51 z "},"ò":{"ha":849,"x_min":0,"x_max":0,"o":"m 488 792 l 421 792 l 293 968 l 376 968 z m 425 -15 b 789 347 626 -15 789 142 b 425 710 789 553 626 710 b 60 347 222 710 60 553 b 425 -15 60 142 222 -15 z m 425 51 b 131 347 260 51 131 182 b 425 643 131 513 260 643 b 718 347 590 643 718 513 b 425 51 718 182 590 51 z "},"ő":{"ha":849,"x_min":0,"x_max":0,"o":"m 250 792 l 347 972 l 425 972 l 321 792 z m 447 792 l 558 972 l 636 972 l 518 792 z m 425 -15 b 789 347 626 -15 789 142 b 425 710 789 553 626 710 b 60 347 222 710 60 553 b 425 -15 60 142 222 -15 z m 425 51 b 131 347 260 51 131 182 b 425 643 131 513 260 643 b 718 347 590 643 718 513 b 425 51 718 182 590 51 z "},"ō":{"ha":849,"x_min":0,"x_max":0,"o":"m 244 815 l 596 815 l 596 876 l 244 876 z m 425 -15 b 789 347 626 -15 789 142 b 425 710 789 553 626 710 b 60 347 222 710 60 553 b 425 -15 60 142 222 -15 z m 425 51 b 131 347 260 51 131 182 b 425 643 131 513 260 643 b 718 347 590 643 718 513 b 425 51 718 182 590 51 z "},"ø":{"ha":849,"x_min":0,"x_max":0,"o":"m 688 601 l 753 674 l 708 699 l 650 633 b 425 710 588 682 510 710 b 60 347 222 710 60 553 b 163 93 60 247 99 157 l 97 21 l 140 -4 l 199 61 b 425 -15 261 13 339 -15 b 789 347 626 -15 789 142 b 688 601 789 447 750 536 z m 131 347 b 425 643 131 513 260 643 b 604 583 493 643 556 621 l 208 144 b 131 347 160 197 131 268 z m 425 51 b 244 111 357 51 294 74 l 640 550 b 718 347 689 497 718 426 b 425 51 718 182 590 51 z "},"õ":{"ha":849,"x_min":0,"x_max":0,"o":"m 232 810 l 293 810 b 418 849 293 918 340 915 b 610 951 514 765 610 796 l 549 951 b 424 913 549 844 501 846 b 232 810 328 996 232 967 z m 425 -15 b 789 347 626 -15 789 142 b 425 710 789 553 626 710 b 60 347 222 710 60 553 b 425 -15 60 142 222 -15 z m 425 51 b 131 347 260 51 131 182 b 425 643 131 513 260 643 b 718 347 590 643 718 513 b 425 51 718 182 590 51 z "},"œ":{"ha":1474,"x_min":0,"x_max":0,"o":"m 1076 710 b 751 488 919 710 800 619 b 425 710 700 621 578 710 b 60 347 217 710 60 553 b 425 -15 60 142 217 -15 b 751 206 576 -15 700 74 b 1083 -15 800 72 922 -15 b 1383 142 1219 -15 1328 47 l 1322 178 b 1082 51 1282 104 1196 51 b 788 311 924 51 804 154 l 1417 311 b 1418 344 1418 322 1418 333 b 1076 710 1418 535 1286 710 z m 425 51 b 131 347 254 51 131 182 b 425 643 131 513 254 643 b 717 347 590 643 717 513 b 425 51 717 182 590 51 z m 1075 643 b 1346 379 1211 643 1331 549 l 788 379 b 1075 643 801 533 918 643 z "},"p":{"ha":896,"x_min":0,"x_max":0,"o":"m 475 710 b 176 533 340 710 233 640 l 176 694 l 107 694 l 107 -278 l 176 -278 l 176 161 b 475 -15 233 54 340 -15 b 835 347 674 -15 835 142 b 475 710 835 553 674 710 z m 471 51 b 176 347 306 51 176 182 b 471 643 176 513 306 643 b 765 347 636 643 765 513 b 471 51 765 182 636 51 z "},"þ":{"ha":896,"x_min":0,"x_max":0,"o":"m 475 710 b 176 533 340 710 233 640 l 176 972 l 107 972 l 107 -278 l 176 -278 l 176 161 b 475 -15 233 54 340 -15 b 835 347 674 -15 835 142 b 475 710 835 553 674 710 z m 471 51 b 176 347 306 51 176 182 b 471 643 176 513 306 643 b 765 347 636 643 765 513 b 471 51 765 182 636 51 z "},"q":{"ha":896,"x_min":0,"x_max":0,"o":"m 719 694 l 719 533 b 421 710 663 640 556 710 b 61 347 222 710 61 553 b 421 -15 61 142 222 -15 b 719 161 556 -15 663 54 l 719 -278 l 789 -278 l 789 694 z m 425 51 b 131 347 260 51 131 182 b 425 643 131 513 260 643 b 719 347 590 643 719 513 b 425 51 719 182 590 51 z "},"r":{"ha":442,"x_min":0,"x_max":0,"o":"m 176 558 l 176 694 l 107 694 l 107 0 l 176 0 l 176 386 b 408 638 176 564 289 638 l 408 704 b 176 558 314 704 224 668 z "},"ŕ":{"ha":442,"x_min":0,"x_max":0,"o":"m 393 968 l 310 968 l 199 792 l 267 792 z m 176 558 l 176 694 l 107 694 l 107 0 l 176 0 l 176 386 b 408 638 176 564 289 638 l 408 704 b 176 558 314 704 224 668 z "},"ř":{"ha":442,"x_min":0,"x_max":0,"o":"m 215 792 l 299 792 l 449 968 l 368 968 l 257 836 l 146 968 l 65 968 z m 176 558 l 176 694 l 107 694 l 107 0 l 176 0 l 176 386 b 408 638 176 564 289 638 l 408 704 b 176 558 314 704 224 668 z "},"ŗ":{"ha":442,"x_min":0,"x_max":0,"o":"m 176 558 l 176 694 l 107 694 l 107 0 l 176 0 l 176 386 b 408 638 176 564 289 638 l 408 704 b 176 558 314 704 224 668 z m 93 -333 l 143 -333 l 178 -97 l 107 -97 z "},"s":{"ha":636,"x_min":0,"x_max":0,"o":"m 154 513 b 321 643 154 596 231 643 b 499 538 397 643 469 610 l 557 571 b 321 710 519 656 433 710 b 85 513 179 710 85 622 b 506 182 85 263 506 371 b 326 51 506 94 424 51 b 122 174 222 51 147 99 l 63 139 b 326 -15 96 50 188 -15 b 575 182 475 -15 575 68 b 154 513 575 436 154 326 z "},"ś":{"ha":636,"x_min":0,"x_max":0,"o":"m 454 968 l 371 968 l 260 792 l 328 792 z m 154 513 b 321 643 154 596 231 643 b 499 538 397 643 469 610 l 557 571 b 321 710 519 656 433 710 b 85 513 179 710 85 622 b 506 182 85 263 506 371 b 326 51 506 94 424 51 b 122 174 222 51 147 99 l 63 139 b 326 -15 96 50 188 -15 b 575 182 475 -15 575 68 b 154 513 575 436 154 326 z "},"š":{"ha":636,"x_min":0,"x_max":0,"o":"m 276 792 l 360 792 l 510 968 l 429 968 l 318 836 l 207 968 l 126 968 z m 154 513 b 321 643 154 596 231 643 b 499 538 397 643 469 610 l 557 571 b 321 710 519 656 433 710 b 85 513 179 710 85 622 b 506 182 85 263 506 371 b 326 51 506 94 424 51 b 122 174 222 51 147 99 l 63 139 b 326 -15 96 50 188 -15 b 575 182 475 -15 575 68 b 154 513 575 436 154 326 z "},"ş":{"ha":636,"x_min":0,"x_max":0,"o":"m 575 182 b 154 513 575 436 154 326 b 321 643 154 596 231 643 b 499 538 397 643 469 610 l 557 571 b 321 710 519 656 433 710 b 85 513 179 710 85 622 b 506 182 85 263 506 371 b 326 51 506 94 424 51 b 122 174 222 51 147 99 l 63 139 b 293 -14 93 57 172 -4 l 293 -122 b 421 -182 375 -122 421 -142 b 211 -236 421 -226 351 -250 l 211 -293 b 482 -182 422 -310 482 -250 b 356 -78 482 -122 426 -86 l 356 -14 b 575 182 488 -4 575 75 z "},"ș":{"ha":636,"x_min":0,"x_max":0,"o":"m 154 513 b 321 643 154 596 231 643 b 499 538 397 643 469 610 l 557 571 b 321 710 519 656 433 710 b 85 513 179 710 85 622 b 506 182 85 263 506 371 b 326 51 506 94 424 51 b 122 174 222 51 147 99 l 63 139 b 326 -15 96 50 188 -15 b 575 182 475 -15 575 68 b 154 513 575 436 154 326 z m 292 -333 l 342 -333 l 376 -97 l 306 -97 z "},"ß":{"ha":717,"x_min":0,"x_max":0,"o":"m 403 -6 b 685 196 582 -15 685 68 b 479 547 685 368 479 454 b 607 775 479 610 607 663 b 372 988 607 890 524 988 b 107 717 218 988 107 889 l 107 0 l 176 0 l 176 717 b 372 921 176 857 264 921 b 536 775 472 921 536 863 b 410 547 536 682 410 633 b 614 196 410 431 614 335 b 403 58 614 97 532 51 z "},"t":{"ha":522,"x_min":0,"x_max":0,"o":"m 463 626 l 463 694 l 256 694 l 256 889 l 185 868 l 185 694 l 32 694 l 32 626 l 185 626 l 185 175 b 463 0 185 17 281 -28 l 463 63 b 256 175 321 50 256 53 l 256 626 z "},"ŧ":{"ha":522,"x_min":0,"x_max":0,"o":"m 463 626 l 463 694 l 256 694 l 256 889 l 185 868 l 185 694 l 32 694 l 32 626 l 185 626 l 185 393 l 89 393 l 89 335 l 185 335 l 185 175 b 463 0 185 17 281 -28 l 463 63 b 256 175 321 50 256 53 l 256 335 l 394 335 l 394 393 l 256 393 l 256 626 z "},"ť":{"ha":522,"x_min":0,"x_max":0,"o":"m 421 992 l 351 992 l 338 774 l 388 774 z m 463 626 l 463 694 l 256 694 l 256 889 l 185 868 l 185 694 l 32 694 l 32 626 l 185 626 l 185 175 b 463 0 185 17 281 -28 l 463 63 b 256 175 321 50 256 53 l 256 626 z "},"ţ":{"ha":522,"x_min":0,"x_max":0,"o":"m 463 626 l 463 694 l 256 694 l 256 889 l 185 868 l 185 694 l 32 694 l 32 626 l 185 626 l 185 175 b 463 0 185 17 281 -28 l 463 63 b 256 175 321 50 256 53 l 256 626 z m 281 -333 l 331 -333 l 365 -97 l 294 -97 z "},"ț":{"ha":522,"x_min":0,"x_max":0,"o":"m 463 626 l 463 694 l 256 694 l 256 889 l 185 868 l 185 694 l 32 694 l 32 626 l 185 626 l 185 175 b 463 0 185 17 281 -28 l 463 63 b 256 175 321 50 256 53 l 256 626 z m 281 -333 l 331 -333 l 365 -97 l 294 -97 z "},"u":{"ha":783,"x_min":0,"x_max":0,"o":"m 607 694 l 607 328 b 364 51 607 140 500 51 b 160 263 233 51 160 135 l 160 694 l 89 694 l 89 263 b 358 -15 89 94 193 -15 b 607 132 465 -15 554 29 l 607 0 l 676 0 l 676 694 z "},"ú":{"ha":783,"x_min":0,"x_max":0,"o":"m 517 968 l 433 968 l 322 792 l 390 792 z m 607 694 l 607 328 b 364 51 607 140 500 51 b 160 263 233 51 160 135 l 160 694 l 89 694 l 89 263 b 358 -15 89 94 193 -15 b 607 132 465 -15 554 29 l 607 0 l 676 0 l 676 694 z "},"û":{"ha":783,"x_min":0,"x_max":0,"o":"m 381 924 l 492 792 l 571 792 l 421 968 l 339 968 l 189 792 l 268 792 z m 607 694 l 607 328 b 364 51 607 140 500 51 b 160 263 233 51 160 135 l 160 694 l 89 694 l 89 263 b 358 -15 89 94 193 -15 b 607 132 465 -15 554 29 l 607 0 l 676 0 l 676 694 z "},"ü":{"ha":783,"x_min":0,"x_max":0,"o":"m 256 801 b 306 851 283 801 306 824 b 256 903 306 881 283 903 b 204 851 226 903 204 881 b 256 801 204 824 226 801 z m 506 801 b 556 851 533 801 556 824 b 506 903 556 881 533 903 b 454 851 476 903 454 881 b 506 801 454 824 476 801 z m 607 694 l 607 328 b 364 51 607 140 500 51 b 160 263 233 51 160 135 l 160 694 l 89 694 l 89 263 b 358 -15 89 94 193 -15 b 607 132 465 -15 554 29 l 607 0 l 676 0 l 676 694 z "},"ù":{"ha":783,"x_min":0,"x_max":0,"o":"m 447 792 l 336 968 l 253 968 l 381 792 z m 607 694 l 607 328 b 364 51 607 140 500 51 b 160 263 233 51 160 135 l 160 694 l 89 694 l 89 263 b 358 -15 89 94 193 -15 b 607 132 465 -15 554 29 l 607 0 l 676 0 l 676 694 z "},"ű":{"ha":783,"x_min":0,"x_max":0,"o":"m 385 972 l 307 972 l 210 792 l 281 792 z m 596 972 l 518 972 l 407 792 l 478 792 z m 607 694 l 607 328 b 364 51 607 140 500 51 b 160 263 233 51 160 135 l 160 694 l 89 694 l 89 263 b 358 -15 89 94 193 -15 b 607 132 465 -15 554 29 l 607 0 l 676 0 l 676 694 z "},"ū":{"ha":783,"x_min":0,"x_max":0,"o":"m 556 876 l 204 876 l 204 815 l 556 815 z m 607 694 l 607 328 b 364 51 607 140 500 51 b 160 263 233 51 160 135 l 160 694 l 89 694 l 89 263 b 358 -15 89 94 193 -15 b 607 132 465 -15 554 29 l 607 0 l 676 0 l 676 694 z "},"ų":{"ha":783,"x_min":0,"x_max":0,"o":"m 676 0 l 676 694 l 607 694 l 607 328 b 364 51 607 140 500 51 b 160 263 233 51 160 135 l 160 694 l 89 694 l 89 263 b 358 -15 89 94 193 -15 b 607 132 465 -15 554 29 l 607 14 b 493 -193 528 -71 493 -137 b 601 -293 493 -253 532 -293 b 676 -279 631 -293 654 -289 l 676 -221 b 617 -233 657 -229 639 -233 b 561 -182 583 -233 561 -217 b 676 0 561 -129 606 -64 z "},"ů":{"ha":783,"x_min":0,"x_max":0,"o":"m 381 768 b 524 903 467 768 524 826 b 381 1038 524 979 467 1038 b 239 903 296 1038 239 979 b 381 768 239 826 296 768 z m 381 982 b 465 903 433 982 465 949 b 381 824 465 857 433 824 b 299 903 329 824 299 857 b 381 982 299 949 329 982 z m 607 694 l 607 328 b 364 51 607 140 500 51 b 160 263 233 51 160 135 l 160 694 l 89 694 l 89 263 b 358 -15 89 94 193 -15 b 607 132 465 -15 554 29 l 607 0 l 676 0 l 676 694 z "},"v":{"ha":710,"x_min":0,"x_max":0,"o":"m 617 694 l 354 72 l 93 694 l 18 694 l 313 0 l 397 0 l 690 694 z "},"w":{"ha":1069,"x_min":0,"x_max":0,"o":"m 950 694 l 765 90 l 571 694 l 499 694 l 304 90 l 119 694 l 46 694 l 265 0 l 342 0 l 535 592 l 728 0 l 804 0 l 1024 694 z "},"ẃ":{"ha":1069,"x_min":0,"x_max":0,"o":"m 671 968 l 588 968 l 476 792 l 544 792 z m 950 694 l 765 90 l 571 694 l 499 694 l 304 90 l 119 694 l 46 694 l 265 0 l 342 0 l 535 592 l 728 0 l 804 0 l 1024 694 z "},"ŵ":{"ha":1069,"x_min":0,"x_max":0,"o":"m 535 924 l 646 792 l 725 792 l 575 968 l 493 968 l 343 792 l 422 792 z m 950 694 l 765 90 l 571 694 l 499 694 l 304 90 l 119 694 l 46 694 l 265 0 l 342 0 l 535 592 l 728 0 l 804 0 l 1024 694 z "},"ẅ":{"ha":1069,"x_min":0,"x_max":0,"o":"m 410 801 b 460 851 438 801 460 824 b 410 903 460 881 438 903 b 358 851 381 903 358 881 b 410 801 358 824 381 801 z m 660 801 b 710 851 688 801 710 824 b 660 903 710 881 688 903 b 608 851 631 903 608 881 b 660 801 608 824 631 801 z m 950 694 l 765 90 l 571 694 l 499 694 l 304 90 l 119 694 l 46 694 l 265 0 l 342 0 l 535 592 l 728 0 l 804 0 l 1024 694 z "},"ẁ":{"ha":1069,"x_min":0,"x_max":0,"o":"m 601 792 l 490 968 l 407 968 l 535 792 z m 950 694 l 765 90 l 571 694 l 499 694 l 304 90 l 119 694 l 46 694 l 265 0 l 342 0 l 535 592 l 728 0 l 804 0 l 1024 694 z "},"x":{"ha":704,"x_min":0,"x_max":0,"o":"m 671 0 l 394 358 l 654 694 l 571 694 l 351 413 l 133 694 l 49 694 l 310 357 l 32 0 l 117 0 l 351 303 l 586 0 z "},"y":{"ha":708,"x_min":0,"x_max":0,"o":"m 615 694 l 374 76 l 93 694 l 18 694 l 338 -12 l 322 -50 b 115 -212 279 -151 208 -221 l 115 -278 b 390 -64 235 -287 338 -197 l 690 694 z "},"ý":{"ha":708,"x_min":0,"x_max":0,"o":"m 494 968 l 411 968 l 300 792 l 368 792 z m 615 694 l 374 76 l 93 694 l 18 694 l 338 -12 l 322 -50 b 115 -212 279 -151 208 -221 l 115 -278 b 390 -64 235 -287 338 -197 l 690 694 z "},"ŷ":{"ha":708,"x_min":0,"x_max":0,"o":"m 358 924 l 469 792 l 549 792 l 399 968 l 317 968 l 167 792 l 246 792 z m 615 694 l 374 76 l 93 694 l 18 694 l 338 -12 l 322 -50 b 115 -212 279 -151 208 -221 l 115 -278 b 390 -64 235 -287 338 -197 l 690 694 z "},"ÿ":{"ha":708,"x_min":0,"x_max":0,"o":"m 233 801 b 283 851 261 801 283 824 b 233 903 283 881 261 903 b 182 851 204 903 182 881 b 233 801 182 824 204 801 z m 483 801 b 533 851 511 801 533 824 b 483 903 533 881 511 903 b 432 851 454 903 432 881 b 483 801 432 824 454 801 z m 615 694 l 374 76 l 93 694 l 18 694 l 338 -12 l 322 -50 b 115 -212 279 -151 208 -221 l 115 -278 b 390 -64 235 -287 338 -197 l 690 694 z "},"ỳ":{"ha":708,"x_min":0,"x_max":0,"o":"m 425 792 l 314 968 l 231 968 l 358 792 z m 615 694 l 374 76 l 93 694 l 18 694 l 338 -12 l 322 -50 b 115 -212 279 -151 208 -221 l 115 -278 b 390 -64 235 -287 338 -197 l 690 694 z "},"z":{"ha":663,"x_min":0,"x_max":0,"o":"m 172 68 l 588 649 l 588 694 l 88 694 l 88 626 l 490 626 l 74 46 l 74 0 l 601 0 l 601 68 z "},"ź":{"ha":663,"x_min":0,"x_max":0,"o":"m 476 968 l 393 968 l 282 792 l 350 792 z m 172 68 l 588 649 l 588 694 l 88 694 l 88 626 l 490 626 l 74 46 l 74 0 l 601 0 l 601 68 z "},"ž":{"ha":663,"x_min":0,"x_max":0,"o":"m 299 792 l 382 792 l 532 968 l 451 968 l 340 836 l 229 968 l 149 968 z m 172 68 l 588 649 l 588 694 l 88 694 l 88 626 l 490 626 l 74 46 l 74 0 l 601 0 l 601 68 z "},"ż":{"ha":663,"x_min":0,"x_max":0,"o":"m 340 796 b 404 861 376 796 404 825 b 340 926 404 897 376 926 b 275 861 303 926 275 897 b 340 796 275 825 303 796 z m 172 68 l 588 649 l 588 694 l 88 694 l 88 626 l 490 626 l 74 46 l 74 0 l 601 0 l 601 68 z "},"ﬁ":{"ha":708,"x_min":0,"x_max":0,"o":"m 603 694 l 228 694 l 228 732 b 435 921 228 867 293 921 b 569 908 481 921 524 917 l 569 972 b 435 988 524 982 481 988 b 157 732 253 988 157 903 l 157 694 l 38 694 l 38 626 l 157 626 l 157 0 l 228 0 l 228 626 l 532 626 l 532 0 l 603 0 z "},"ﬂ":{"ha":708,"x_min":0,"x_max":0,"o":"m 435 988 b 157 732 253 988 157 903 l 157 694 l 38 694 l 38 626 l 157 626 l 157 0 l 228 0 l 228 626 l 393 626 l 393 694 l 228 694 l 228 732 b 435 924 228 867 293 924 b 532 918 468 924 500 922 l 532 0 l 603 0 l 603 972 b 435 988 544 982 494 988 z "},"А":{"ha":874,"x_min":0,"x_max":0,"o":"m 775 0 l 853 0 l 476 972 l 399 972 l 21 0 l 99 0 l 193 247 l 681 247 z m 221 317 l 438 882 l 654 317 z "},"Б":{"ha":813,"x_min":0,"x_max":0,"o":"m 472 574 l 194 574 l 194 903 l 681 903 l 681 972 l 121 972 l 121 0 l 472 0 b 760 288 631 0 760 129 b 472 574 760 444 631 574 z m 472 69 l 194 69 l 194 504 l 472 504 b 685 288 589 504 685 407 b 472 69 685 167 589 69 z "},"В":{"ha":865,"x_min":0,"x_max":0,"o":"m 639 504 b 764 717 714 544 764 622 b 508 972 764 857 650 972 l 121 972 l 121 0 l 540 0 b 806 265 688 0 806 118 b 639 504 806 376 736 467 z m 508 903 b 690 717 608 903 690 819 b 508 531 690 614 608 531 l 194 531 l 194 903 z m 540 69 l 194 69 l 194 461 l 540 461 b 732 265 646 461 732 374 b 540 69 732 157 646 69 z "},"Г":{"ha":685,"x_min":0,"x_max":0,"o":"m 653 972 l 121 972 l 121 0 l 194 0 l 194 903 l 653 903 z "},"Ѓ":{"ha":685,"x_min":0,"x_max":0,"o":"m 519 1244 l 436 1244 l 325 1068 l 393 1068 z m 653 972 l 121 972 l 121 0 l 194 0 l 194 903 l 653 903 z "},"Ґ":{"ha":685,"x_min":0,"x_max":0,"o":"m 579 1139 l 579 972 l 121 972 l 121 0 l 194 0 l 194 903 l 653 903 l 653 1139 z "},"Д":{"ha":958,"x_min":0,"x_max":0,"o":"m 803 69 l 803 972 l 203 972 l 203 418 b 103 69 203 229 157 131 l 25 69 l 25 -186 l 100 -186 l 100 0 l 831 0 l 831 -186 l 906 -186 l 906 69 z m 276 417 l 276 903 l 729 903 l 729 69 l 190 69 b 276 417 238 136 276 239 z "},"Е":{"ha":740,"x_min":0,"x_max":0,"o":"m 194 69 l 194 456 l 639 456 l 639 525 l 194 525 l 194 903 l 674 903 l 674 972 l 121 972 l 121 0 l 681 0 l 681 69 z "},"Ё":{"ha":740,"x_min":0,"x_max":0,"o":"m 272 1079 b 322 1129 300 1079 322 1101 b 272 1181 322 1158 300 1181 b 221 1129 243 1181 221 1158 b 272 1079 221 1101 243 1079 z m 522 1079 b 572 1129 550 1079 572 1101 b 522 1181 572 1158 550 1181 b 471 1129 493 1181 471 1158 b 522 1079 471 1101 493 1079 z m 194 69 l 194 456 l 639 456 l 639 525 l 194 525 l 194 903 l 674 903 l 674 972 l 121 972 l 121 0 l 681 0 l 681 69 z "},"Ж":{"ha":1161,"x_min":0,"x_max":0,"o":"m 1133 0 l 692 500 l 1119 972 l 1032 972 l 618 518 l 618 972 l 543 972 l 543 518 l 129 972 l 42 972 l 469 500 l 28 0 l 115 0 l 543 482 l 543 0 l 618 0 l 618 482 l 1046 0 z "},"З":{"ha":774,"x_min":0,"x_max":0,"o":"m 538 503 b 682 724 628 544 682 625 b 385 988 682 872 563 988 b 74 793 215 988 119 903 l 135 758 b 385 918 169 847 243 918 b 608 724 521 918 608 835 b 383 531 608 614 524 531 l 306 531 l 306 461 l 415 461 b 643 258 560 461 643 372 b 390 54 643 140 551 54 b 119 233 224 54 146 138 l 56 199 b 390 -15 96 81 199 -15 b 718 258 593 -15 718 103 b 538 503 718 374 651 464 z "},"И":{"ha":954,"x_min":0,"x_max":0,"o":"m 760 0 l 833 0 l 833 972 l 768 972 l 194 136 l 194 972 l 121 972 l 121 0 l 185 0 l 760 836 z "},"Й":{"ha":954,"x_min":0,"x_max":0,"o":"m 300 1093 l 651 1093 l 651 1154 l 300 1154 z m 760 0 l 833 0 l 833 972 l 768 972 l 194 136 l 194 972 l 121 972 l 121 0 l 185 0 l 760 836 z "},"К":{"ha":794,"x_min":0,"x_max":0,"o":"m 781 0 l 275 500 l 767 972 l 668 972 l 194 519 l 194 972 l 121 972 l 121 0 l 194 0 l 194 479 l 682 0 z "},"Ќ":{"ha":794,"x_min":0,"x_max":0,"o":"m 533 1244 l 450 1244 l 339 1068 l 407 1068 z m 781 0 l 275 500 l 767 972 l 668 972 l 194 519 l 194 972 l 121 972 l 121 0 l 194 0 l 194 479 l 682 0 z "},"Л":{"ha":969,"x_min":0,"x_max":0,"o":"m 25 0 b 308 411 204 -15 308 88 l 308 903 l 775 903 l 775 0 l 850 0 l 850 972 l 235 972 l 235 413 b 25 65 235 129 153 50 z "},"М":{"ha":1121,"x_min":0,"x_max":0,"o":"m 1000 972 l 907 972 l 560 397 l 213 972 l 121 972 l 121 0 l 194 0 l 194 864 l 554 267 l 567 267 l 926 864 l 926 0 l 1000 0 z "},"Н":{"ha":954,"x_min":0,"x_max":0,"o":"m 760 972 l 760 535 l 194 535 l 194 972 l 121 972 l 121 0 l 194 0 l 194 465 l 760 465 l 760 0 l 833 0 l 833 972 z "},"О":{"ha":1133,"x_min":0,"x_max":0,"o":"m 567 -15 b 1068 486 847 -15 1068 208 b 567 988 1068 764 847 988 b 65 486 286 988 65 764 b 567 -15 65 208 286 -15 z m 567 56 b 139 486 326 56 139 247 b 567 917 139 725 326 917 b 994 486 807 917 994 725 b 567 56 994 247 807 56 z "},"П":{"ha":935,"x_min":0,"x_max":0,"o":"m 815 972 l 121 972 l 121 0 l 194 0 l 194 903 l 740 903 l 740 0 l 815 0 z "},"Р":{"ha":815,"x_min":0,"x_max":0,"o":"m 451 972 l 121 972 l 121 0 l 194 0 l 194 371 l 451 371 b 754 671 626 371 754 500 b 451 972 754 843 626 972 z m 451 440 l 194 440 l 194 903 l 451 903 b 681 671 585 903 681 806 b 451 440 681 538 585 440 z "},"С":{"ha":1043,"x_min":0,"x_max":0,"o":"m 571 -15 b 990 222 753 -15 911 79 l 925 260 b 571 56 861 138 725 56 b 139 486 315 56 139 247 b 571 917 139 725 315 917 b 922 717 724 917 858 836 l 988 754 b 571 988 907 896 750 988 b 65 486 275 988 65 764 b 571 -15 65 208 275 -15 z "},"Т":{"ha":750,"x_min":0,"x_max":0,"o":"m 718 972 l 32 972 l 32 903 l 338 903 l 338 0 l 413 0 l 413 903 l 718 903 z "},"У":{"ha":786,"x_min":0,"x_max":0,"o":"m 692 972 l 422 343 l 122 972 l 46 972 l 388 260 l 371 221 b 149 68 321 104 253 57 l 149 0 b 444 213 281 -10 376 53 l 768 972 z "},"Ў":{"ha":786,"x_min":0,"x_max":0,"o":"m 576 1153 l 225 1153 l 225 1092 l 576 1092 z m 692 972 l 422 343 l 122 972 l 46 972 l 388 260 l 371 221 b 149 68 321 104 253 57 l 149 0 b 444 213 281 -10 376 53 l 768 972 z "},"Ф":{"ha":1117,"x_min":0,"x_max":0,"o":"m 1071 486 b 596 863 1071 725 869 853 l 596 972 l 521 972 l 521 863 b 46 486 247 853 46 725 b 521 110 46 247 247 119 l 521 0 l 596 0 l 596 110 b 1071 486 869 119 1071 247 z m 121 486 b 521 794 121 682 282 785 l 521 178 b 121 486 282 188 121 290 z m 596 178 l 596 794 b 996 486 835 785 996 682 b 596 178 996 290 835 188 z "},"Х":{"ha":796,"x_min":0,"x_max":0,"o":"m 764 0 l 440 500 l 746 972 l 661 972 l 399 565 l 135 972 l 50 972 l 356 500 l 32 0 l 118 0 l 399 433 l 679 0 z "},"Ч":{"ha":871,"x_min":0,"x_max":0,"o":"m 676 972 l 676 490 b 403 426 585 446 504 426 b 171 629 254 426 171 510 l 171 972 l 97 972 l 97 629 b 403 357 97 475 210 357 b 676 421 504 357 585 376 l 676 0 l 750 0 l 750 972 z "},"Ц":{"ha":958,"x_min":0,"x_max":0,"o":"m 806 69 l 806 972 l 732 972 l 732 69 l 194 69 l 194 972 l 121 972 l 121 0 l 833 0 l 833 -186 l 907 -186 l 907 69 z "},"Ш":{"ha":1329,"x_min":0,"x_max":0,"o":"m 1135 972 l 1135 69 l 701 69 l 701 972 l 628 972 l 628 69 l 194 69 l 194 972 l 121 972 l 121 0 l 1208 0 l 1208 972 z "},"Щ":{"ha":1361,"x_min":0,"x_max":0,"o":"m 1208 69 l 1208 972 l 1135 972 l 1135 69 l 701 69 l 701 972 l 628 972 l 628 69 l 194 69 l 194 972 l 121 972 l 121 0 l 1236 0 l 1236 -186 l 1310 -186 l 1310 69 z "},"Џ":{"ha":935,"x_min":0,"x_max":0,"o":"m 740 972 l 740 69 l 194 69 l 194 972 l 121 972 l 121 0 l 431 0 l 431 -186 l 504 -186 l 504 0 l 815 0 l 815 972 z "},"Ь":{"ha":815,"x_min":0,"x_max":0,"o":"m 451 601 l 194 601 l 194 972 l 121 972 l 121 0 l 451 0 b 754 301 626 0 754 129 b 451 601 754 472 626 601 z m 451 69 l 194 69 l 194 532 l 451 532 b 681 301 585 532 681 435 b 451 69 681 167 585 69 z "},"Ъ":{"ha":963,"x_min":0,"x_max":0,"o":"m 268 0 l 600 0 b 903 301 774 0 903 129 b 600 601 903 472 774 601 l 343 601 l 343 972 l 0 972 l 0 903 l 268 903 z m 343 69 l 343 532 l 600 532 b 829 301 733 532 829 435 b 600 69 829 167 733 69 z "},"Ы":{"ha":1060,"x_min":0,"x_max":0,"o":"m 121 0 l 451 0 b 754 301 626 0 754 129 b 451 601 754 472 626 601 l 194 601 l 194 972 l 121 972 z m 865 0 l 940 0 l 940 972 l 865 972 z m 194 69 l 194 532 l 451 532 b 681 301 585 532 681 435 b 451 69 681 167 585 69 z "},"Љ":{"ha":1382,"x_min":0,"x_max":0,"o":"m 1035 546 l 803 546 l 803 972 l 235 972 l 235 413 b 25 64 235 129 153 50 l 25 -1 b 308 411 204 -17 308 88 l 308 903 l 729 903 l 729 0 l 1035 0 b 1322 274 1193 0 1322 115 b 1035 546 1322 431 1193 546 z m 1035 69 l 803 69 l 803 476 l 1035 476 b 1247 274 1151 476 1247 393 b 1035 69 1247 153 1151 69 z "},"Њ":{"ha":1365,"x_min":0,"x_max":0,"o":"m 1018 546 l 788 546 l 788 972 l 713 972 l 713 546 l 194 546 l 194 972 l 121 972 l 121 0 l 194 0 l 194 476 l 713 476 l 713 0 l 1018 0 b 1306 274 1176 0 1306 115 b 1018 546 1306 431 1176 546 z m 1018 69 l 788 69 l 788 476 l 1018 476 b 1232 274 1136 476 1232 393 b 1018 69 1232 153 1136 69 z "},"Ѕ":{"ha":797,"x_min":0,"x_max":0,"o":"m 418 -15 b 738 251 611 -15 738 90 b 415 531 738 419 588 474 b 178 729 276 576 178 613 b 397 917 178 838 263 917 b 647 749 536 917 611 836 l 710 783 b 397 988 663 896 557 988 b 103 726 232 988 103 886 b 411 458 103 557 249 511 b 663 250 560 411 663 367 b 418 56 663 139 581 56 b 126 251 258 56 160 135 l 63 214 b 418 -15 107 76 236 -15 z "},"Є":{"ha":1039,"x_min":0,"x_max":0,"o":"m 919 260 b 567 56 856 138 721 56 b 140 451 324 56 156 229 l 689 451 l 689 521 l 140 521 b 567 917 156 743 324 917 b 918 717 718 917 853 836 l 983 754 b 567 988 903 896 744 988 b 65 486 271 988 65 764 b 567 -15 65 208 271 -15 b 986 222 747 -15 907 79 z "},"Э":{"ha":1039,"x_min":0,"x_max":0,"o":"m 472 988 b 56 754 294 988 136 896 l 121 717 b 472 917 186 836 321 917 b 899 521 715 917 883 743 l 350 521 l 350 451 l 899 451 b 472 56 883 229 715 56 b 119 260 318 56 183 138 l 53 222 b 472 -15 132 79 292 -15 b 974 486 768 -15 974 208 b 472 988 974 764 768 988 z "},"І":{"ha":315,"x_min":0,"x_max":0,"o":"m 121 972 l 121 0 l 194 0 l 194 972 z "},"Ї":{"ha":315,"x_min":0,"x_max":0,"o":"m 32 1079 b 82 1129 60 1079 82 1101 b 32 1181 82 1158 60 1181 b -19 1129 3 1181 -19 1158 b 32 1079 -19 1101 3 1079 z m 282 1079 b 332 1129 310 1079 332 1101 b 282 1181 332 1158 310 1181 b 231 1129 253 1181 231 1158 b 282 1079 231 1101 253 1079 z m 121 972 l 121 0 l 194 0 l 194 972 z "},"Ј":{"ha":768,"x_min":0,"x_max":0,"o":"m 350 -15 b 663 267 522 -15 663 81 l 663 972 l 588 972 l 588 267 b 350 56 588 128 492 56 b 122 185 240 56 157 97 l 60 147 b 350 -15 107 40 217 -15 z "},"Ћ":{"ha":979,"x_min":0,"x_max":0,"o":"m 622 654 b 385 600 526 654 457 635 l 385 903 l 708 903 l 708 972 l 32 972 l 32 903 l 310 903 l 310 0 l 385 0 l 385 533 b 622 588 460 567 532 588 b 804 399 728 588 804 528 l 804 0 l 878 0 l 878 399 b 622 654 878 571 764 654 z "},"Ю":{"ha":1454,"x_min":0,"x_max":0,"o":"m 888 988 b 392 535 622 988 415 789 l 194 535 l 194 972 l 121 972 l 121 0 l 194 0 l 194 465 l 389 465 b 888 -15 400 197 613 -15 b 1389 486 1168 -15 1389 208 b 888 988 1389 764 1168 988 z m 888 56 b 460 486 646 56 460 247 b 888 917 460 725 646 917 b 1315 486 1128 917 1315 725 b 888 56 1315 247 1128 56 z "},"Я":{"ha":871,"x_min":0,"x_max":0,"o":"m 750 972 l 365 972 b 79 685 207 972 79 843 b 328 401 79 540 188 419 l 51 0 l 135 0 l 410 399 l 676 399 l 676 0 l 750 0 z m 365 468 b 153 685 249 468 153 565 b 365 903 153 806 249 903 l 676 903 l 676 468 z "},"Ђ":{"ha":971,"x_min":0,"x_max":0,"o":"m 622 654 b 385 600 526 654 457 635 l 385 903 l 708 903 l 708 972 l 32 972 l 32 903 l 310 903 l 310 0 l 385 0 l 385 533 b 622 588 460 567 532 588 b 804 399 728 588 804 528 l 804 206 b 647 58 804 93 757 46 l 647 -10 b 878 206 797 -24 878 57 l 878 399 b 622 654 878 571 764 654 z "},"а":{"ha":896,"x_min":0,"x_max":0,"o":"m 718 694 l 718 538 b 419 710 660 642 553 710 b 60 347 222 710 60 553 b 419 -15 60 142 222 -15 b 718 157 553 -15 660 53 l 718 0 l 789 0 l 789 694 z m 425 51 b 131 347 260 51 131 182 b 425 643 131 513 260 643 b 718 347 590 643 718 513 b 425 51 718 182 590 51 z "},"б":{"ha":793,"x_min":0,"x_max":0,"o":"m 410 -17 b 747 307 606 -17 747 121 b 425 632 747 497 608 632 b 142 481 329 632 211 589 b 357 726 164 603 221 665 b 668 958 499 792 644 825 l 613 990 b 319 782 593 872 471 854 b 60 340 99 674 60 557 b 410 -17 60 125 213 -17 z m 410 53 b 135 325 251 53 135 165 b 417 564 146 472 282 564 b 676 307 571 564 676 456 b 410 53 676 160 567 53 z "},"в":{"ha":704,"x_min":0,"x_max":0,"o":"m 535 358 b 624 513 594 388 624 444 b 417 694 624 614 553 694 l 107 694 l 107 0 l 443 0 b 657 192 588 0 657 86 b 535 358 657 271 615 332 z m 417 626 b 553 508 504 626 553 582 b 417 386 553 431 506 386 l 176 386 l 176 626 z m 443 68 l 176 68 l 176 318 l 443 318 b 588 194 535 318 588 271 b 443 68 588 115 536 68 z "},"г":{"ha":558,"x_min":0,"x_max":0,"o":"m 542 694 l 107 694 l 107 0 l 176 0 l 176 626 l 542 626 z "},"ѓ":{"ha":558,"x_min":0,"x_max":0,"o":"m 426 968 l 343 968 l 232 792 l 300 792 z m 542 694 l 107 694 l 107 0 l 176 0 l 176 626 l 542 626 z "},"ґ":{"ha":558,"x_min":0,"x_max":0,"o":"m 471 839 l 471 694 l 107 694 l 107 0 l 176 0 l 176 626 l 542 626 l 542 839 z "},"д":{"ha":819,"x_min":0,"x_max":0,"o":"m 676 68 l 676 694 l 189 694 l 189 347 b 113 68 189 210 161 135 l 32 68 l 32 -186 l 103 -186 l 103 0 l 703 0 l 703 -186 l 774 -186 l 774 68 z m 199 68 b 258 347 238 139 258 224 l 258 626 l 606 626 l 606 68 z "},"е":{"ha":818,"x_min":0,"x_max":0,"o":"m 419 710 b 60 347 207 710 60 551 b 425 -15 60 138 211 -15 b 728 142 563 -15 671 47 l 667 178 b 426 51 626 104 540 51 b 132 311 268 51 149 154 l 761 311 b 763 344 761 322 763 333 b 419 710 763 535 631 710 z m 419 643 b 690 379 556 643 675 549 l 132 379 b 419 643 146 533 261 643 z "},"ё":{"ha":818,"x_min":0,"x_max":0,"o":"m 286 801 b 336 851 314 801 336 824 b 286 903 336 881 314 903 b 235 851 257 903 235 881 b 286 801 235 824 257 801 z m 536 801 b 586 851 564 801 586 824 b 536 903 586 881 564 903 b 485 851 507 903 485 881 b 536 801 485 824 507 801 z m 419 710 b 60 347 207 710 60 551 b 425 -15 60 138 211 -15 b 728 142 563 -15 671 47 l 667 178 b 426 51 626 104 540 51 b 132 311 268 51 149 154 l 761 311 b 763 344 761 322 763 333 b 419 710 763 535 631 710 z m 419 643 b 690 379 556 643 675 549 l 132 379 b 419 643 146 533 261 643 z "},"ж":{"ha":921,"x_min":0,"x_max":0,"o":"m 889 0 l 561 361 l 875 694 l 789 694 l 496 381 l 496 694 l 425 694 l 425 381 l 132 694 l 46 694 l 361 361 l 32 0 l 118 0 l 425 342 l 425 0 l 496 0 l 496 342 l 803 0 z "},"з":{"ha":618,"x_min":0,"x_max":0,"o":"m 440 358 b 538 517 504 389 538 449 b 304 710 538 619 451 710 b 58 564 178 710 96 649 l 117 531 b 304 643 146 603 213 643 b 468 514 403 643 468 588 b 322 386 468 436 413 386 l 253 386 l 253 318 l 349 318 b 501 190 443 318 501 265 b 317 51 501 110 435 51 b 106 183 196 51 132 106 l 46 149 b 317 -15 81 57 161 -15 b 572 186 488 -15 572 81 b 440 358 572 265 525 331 z "},"и":{"ha":788,"x_min":0,"x_max":0,"o":"m 619 694 l 176 121 l 176 694 l 107 694 l 107 0 l 168 0 l 610 574 l 610 0 l 681 0 l 681 694 z "},"й":{"ha":788,"x_min":0,"x_max":0,"o":"m 217 815 l 568 815 l 568 876 l 217 876 z m 619 694 l 176 121 l 176 694 l 107 694 l 107 0 l 168 0 l 610 574 l 610 0 l 681 0 l 681 694 z "},"к":{"ha":671,"x_min":0,"x_max":0,"o":"m 639 0 l 251 361 l 625 694 l 528 694 l 176 379 l 176 694 l 107 694 l 107 0 l 176 0 l 176 342 l 544 0 z "},"ќ":{"ha":671,"x_min":0,"x_max":0,"o":"m 474 968 l 390 968 l 279 792 l 347 792 z m 639 0 l 251 361 l 625 694 l 528 694 l 176 379 l 176 694 l 107 694 l 107 0 l 176 0 l 176 342 l 544 0 z "},"л":{"ha":778,"x_min":0,"x_max":0,"o":"m 671 694 l 182 694 l 182 292 b 18 65 182 113 125 56 l 18 0 b 251 292 149 -10 251 49 l 251 626 l 601 626 l 601 0 l 671 0 z "},"м":{"ha":885,"x_min":0,"x_max":0,"o":"m 778 694 l 694 694 l 442 296 l 189 694 l 107 694 l 107 0 l 176 0 l 176 592 l 438 179 l 447 179 l 707 589 l 707 0 l 778 0 z "},"н":{"ha":788,"x_min":0,"x_max":0,"o":"m 610 694 l 610 381 l 176 381 l 176 694 l 107 694 l 107 0 l 176 0 l 176 314 l 610 314 l 610 0 l 681 0 l 681 694 z "},"о":{"ha":849,"x_min":0,"x_max":0,"o":"m 425 -15 b 789 347 626 -15 789 142 b 425 710 789 553 626 710 b 60 347 222 710 60 553 b 425 -15 60 142 222 -15 z m 425 51 b 131 347 260 51 131 182 b 425 643 131 513 260 643 b 718 347 590 643 718 513 b 425 51 718 182 590 51 z "},"п":{"ha":788,"x_min":0,"x_max":0,"o":"m 681 694 l 107 694 l 107 0 l 176 0 l 176 626 l 610 626 l 610 0 l 681 0 z "},"р":{"ha":896,"x_min":0,"x_max":0,"o":"m 475 710 b 176 533 340 710 233 640 l 176 694 l 107 694 l 107 -278 l 176 -278 l 176 161 b 475 -15 233 54 340 -15 b 835 347 674 -15 835 142 b 475 710 835 553 674 710 z m 471 51 b 176 347 306 51 176 182 b 471 643 176 513 306 643 b 765 347 636 643 765 513 b 471 51 765 182 636 51 z "},"с":{"ha":779,"x_min":0,"x_max":0,"o":"m 425 -15 b 733 161 561 -15 678 54 l 675 196 b 425 51 629 110 538 51 b 131 347 257 51 131 182 b 425 643 131 513 257 643 b 671 499 536 643 631 586 l 728 532 b 425 710 678 640 561 710 b 60 347 215 710 60 553 b 425 -15 60 142 215 -15 z "},"т":{"ha":611,"x_min":0,"x_max":0,"o":"m 593 694 l 18 694 l 18 626 l 271 626 l 271 0 l 340 0 l 340 626 l 593 626 z "},"у":{"ha":708,"x_min":0,"x_max":0,"o":"m 615 694 l 374 76 l 93 694 l 18 694 l 338 -12 l 322 -50 b 115 -212 279 -151 208 -221 l 115 -278 b 390 -64 235 -287 338 -197 l 690 694 z "},"ў":{"ha":708,"x_min":0,"x_max":0,"o":"m 533 876 l 182 876 l 182 815 l 533 815 z m 615 694 l 374 76 l 93 694 l 18 694 l 338 -12 l 322 -50 b 115 -212 279 -151 208 -221 l 115 -278 b 390 -64 235 -287 338 -197 l 690 694 z "},"ф":{"ha":931,"x_min":0,"x_max":0,"o":"m 871 347 b 500 710 871 543 724 696 l 500 972 l 431 972 l 431 710 b 60 347 207 696 60 543 b 431 -15 60 151 207 -1 l 431 -278 l 500 -278 l 500 -15 b 871 347 724 -1 871 151 z m 131 347 b 431 642 131 506 246 628 l 431 53 b 131 347 246 67 131 189 z m 500 53 l 500 642 b 800 347 685 628 800 506 b 500 53 800 189 685 67 z "},"х":{"ha":704,"x_min":0,"x_max":0,"o":"m 671 0 l 394 358 l 654 694 l 571 694 l 351 413 l 133 694 l 49 694 l 310 357 l 32 0 l 117 0 l 351 303 l 586 0 z "},"ч":{"ha":746,"x_min":0,"x_max":0,"o":"m 568 694 l 568 338 b 354 293 503 308 428 293 b 149 468 222 293 149 347 l 149 694 l 79 694 l 79 468 b 357 226 79 310 181 226 b 568 272 432 226 507 242 l 568 0 l 639 0 l 639 694 z "},"ц":{"ha":824,"x_min":0,"x_max":0,"o":"m 667 68 l 667 694 l 596 694 l 596 68 l 176 68 l 176 694 l 107 694 l 107 0 l 707 0 l 707 -186 l 778 -186 l 778 68 z "},"ш":{"ha":1135,"x_min":0,"x_max":0,"o":"m 957 694 l 957 68 l 603 68 l 603 694 l 532 694 l 532 68 l 176 68 l 176 694 l 107 694 l 107 0 l 1028 0 l 1028 694 z "},"щ":{"ha":1171,"x_min":0,"x_max":0,"o":"m 1028 68 l 1028 694 l 957 694 l 957 68 l 603 68 l 603 694 l 532 694 l 532 68 l 176 68 l 176 694 l 107 694 l 107 0 l 1054 0 l 1054 -186 l 1125 -186 l 1125 68 z "},"џ":{"ha":788,"x_min":0,"x_max":0,"o":"m 610 694 l 610 68 l 176 68 l 176 694 l 107 694 l 107 0 l 358 0 l 358 -186 l 429 -186 l 429 0 l 681 0 l 681 694 z "},"ь":{"ha":657,"x_min":0,"x_max":0,"o":"m 382 425 l 176 425 l 176 694 l 107 694 l 107 0 l 382 0 b 611 213 506 0 611 85 b 382 425 611 340 506 425 z m 382 68 l 176 68 l 176 357 l 382 357 b 540 213 469 357 540 301 b 382 68 540 125 469 68 z "},"ъ":{"ha":750,"x_min":0,"x_max":0,"o":"m 474 425 l 269 425 l 269 694 l 0 694 l 0 626 l 199 626 l 199 0 l 474 0 b 704 213 599 0 704 85 b 474 425 704 340 599 425 z m 474 68 l 269 68 l 269 357 l 474 357 b 633 213 563 357 633 301 b 474 68 633 125 563 68 z "},"ы":{"ha":894,"x_min":0,"x_max":0,"o":"m 382 425 l 176 425 l 176 694 l 107 694 l 107 0 l 382 0 b 611 213 506 0 611 85 b 382 425 611 340 506 425 z m 718 694 l 718 0 l 788 0 l 788 694 z m 382 68 l 176 68 l 176 357 l 382 357 b 540 213 469 357 540 301 b 382 68 540 125 469 68 z "},"љ":{"ha":1115,"x_min":0,"x_max":0,"o":"m 853 397 l 657 397 l 657 694 l 182 694 l 182 292 b 18 65 182 113 125 56 l 18 0 b 251 292 149 -10 251 49 l 251 626 l 588 626 l 588 0 l 853 0 b 1068 199 969 0 1068 71 b 853 397 1068 326 969 397 z m 853 68 l 657 68 l 657 329 l 853 329 b 999 199 933 329 999 288 b 853 68 999 111 933 68 z "},"њ":{"ha":1106,"x_min":0,"x_max":0,"o":"m 843 397 l 649 397 l 649 694 l 578 694 l 578 397 l 172 397 l 172 694 l 101 694 l 101 0 l 172 0 l 172 329 l 578 329 l 578 0 l 843 0 b 1060 199 961 0 1060 71 b 843 397 1060 326 961 397 z m 843 68 l 649 68 l 649 329 l 843 329 b 989 199 925 329 989 288 b 843 68 989 111 925 68 z "},"ѕ":{"ha":636,"x_min":0,"x_max":0,"o":"m 154 513 b 321 643 154 596 231 643 b 499 538 397 643 469 610 l 557 571 b 321 710 519 656 433 710 b 85 513 179 710 85 622 b 506 182 85 263 506 371 b 326 51 506 94 424 51 b 122 174 222 51 147 99 l 63 139 b 326 -15 96 50 188 -15 b 575 182 475 -15 575 68 b 154 513 575 436 154 326 z "},"є":{"ha":763,"x_min":0,"x_max":0,"o":"m 665 199 b 413 51 629 111 539 51 b 132 314 251 51 146 165 l 492 314 l 492 381 l 132 381 b 411 643 146 529 250 643 b 661 497 528 643 619 586 l 722 532 b 411 710 668 640 553 710 b 60 347 197 710 60 553 b 413 -15 60 142 199 -15 b 725 163 563 -15 676 54 z "},"э":{"ha":763,"x_min":0,"x_max":0,"o":"m 351 710 b 40 532 210 710 94 640 l 101 497 b 351 643 143 586 235 643 b 631 381 513 643 617 529 l 271 381 l 271 314 l 631 314 b 350 51 617 165 511 51 b 97 199 224 51 133 111 l 38 163 b 350 -15 86 54 200 -15 b 703 347 564 -15 703 142 b 351 710 703 553 565 710 z "},"і":{"ha":283,"x_min":0,"x_max":0,"o":"m 142 863 b 197 918 172 863 197 888 b 142 972 197 947 172 972 b 86 918 111 972 86 947 b 142 863 86 888 111 863 z m 107 0 l 176 0 l 176 694 l 107 694 z "},"ї":{"ha":283,"x_min":0,"x_max":0,"o":"m 17 801 b 67 851 44 801 67 824 b 17 903 67 881 44 903 b -35 851 -12 903 -35 881 b 17 801 -35 824 -12 801 z m 267 801 b 317 851 294 801 317 824 b 267 903 317 881 294 903 b 215 851 238 903 215 881 b 267 801 215 824 238 801 z m 107 0 l 176 0 l 176 694 l 107 694 z "},"ј":{"ha":310,"x_min":0,"x_max":0,"o":"m 168 972 b 113 918 138 972 113 947 b 168 863 113 888 138 863 b 224 918 199 863 224 888 b 168 972 224 947 199 972 z m 133 -79 b -28 -226 133 -190 82 -237 l -28 -293 b 203 -79 122 -307 203 -226 l 203 694 l 133 694 z "},"ћ":{"ha":801,"x_min":0,"x_max":0,"o":"m 443 710 b 196 565 338 710 249 665 l 196 808 l 413 808 l 413 867 l 196 867 l 196 972 l 125 972 l 125 867 l 24 867 l 24 808 l 125 808 l 125 0 l 196 0 l 196 367 b 438 643 196 554 303 643 b 643 432 568 643 643 560 l 643 0 l 713 0 l 713 432 b 443 710 713 600 608 710 z "},"ю":{"ha":1115,"x_min":0,"x_max":0,"o":"m 692 710 b 332 381 500 710 349 569 l 176 381 l 176 694 l 107 694 l 107 0 l 176 0 l 176 314 l 332 314 b 692 -15 349 125 500 -15 b 1056 347 893 -15 1056 142 b 692 710 1056 553 893 710 z m 692 51 b 397 347 526 51 397 182 b 692 643 397 513 526 643 b 985 347 857 643 985 513 b 692 51 985 182 857 51 z "},"я":{"ha":694,"x_min":0,"x_max":0,"o":"m 588 694 l 313 694 b 83 482 189 694 83 610 b 282 272 83 365 172 285 l 60 0 l 150 0 l 368 271 l 518 271 l 518 0 l 588 0 z m 313 338 b 154 482 225 338 154 393 b 313 626 154 569 225 626 l 518 626 l 518 338 z "},"ђ":{"ha":801,"x_min":0,"x_max":0,"o":"m 443 710 b 196 565 338 710 249 665 l 196 808 l 413 808 l 413 867 l 196 867 l 196 972 l 125 972 l 125 867 l 24 867 l 24 808 l 125 808 l 125 0 l 196 0 l 196 367 b 438 643 196 554 303 643 b 643 432 568 643 643 560 l 643 -79 b 482 -226 643 -190 592 -237 l 482 -293 b 713 -79 632 -307 713 -226 l 713 432 b 443 710 713 600 608 710 z "},"Δ":{"ha":869,"x_min":0,"x_max":0,"o":"m 474 972 l 396 972 l 18 0 l 851 0 z m 124 69 l 435 882 l 746 69 z "},"Ω":{"ha":1133,"x_min":0,"x_max":0,"o":"m 1068 486 b 567 988 1068 764 847 988 b 65 486 286 988 65 764 b 306 69 65 304 161 150 l 81 69 l 81 0 l 457 0 l 457 69 b 139 486 271 117 139 285 b 567 917 139 725 326 917 b 994 486 807 917 994 725 b 676 69 994 285 861 117 l 676 0 l 1053 0 l 1053 69 l 828 69 b 1068 486 972 150 1068 304 z "},"π":{"ha":903,"x_min":0,"x_max":0,"o":"m 857 694 l 46 694 l 46 626 l 167 626 l 167 0 l 238 0 l 238 626 l 671 626 l 671 0 l 742 0 l 742 626 l 857 626 z "},"⁄":{"ha":315,"x_min":0,"x_max":0,"o":"m -93 0 l 472 972 l 407 972 l -157 0 z "},"½":{"ha":1132,"x_min":0,"x_max":0,"o":"m 242 417 l 242 972 l 189 972 l 18 910 l 36 851 l 175 897 l 175 417 z m 749 972 l 185 0 l 249 0 l 814 972 z m 803 64 l 993 238 b 1075 406 1049 289 1075 344 b 893 572 1075 497 1006 572 b 706 447 800 572 735 524 l 761 417 b 893 508 782 472 825 508 b 1008 406 967 508 1008 463 b 947 281 1008 364 988 317 l 704 54 l 704 0 l 1086 0 l 1086 64 z "},"¼":{"ha":1151,"x_min":0,"x_max":0,"o":"m 242 417 l 242 972 l 189 972 l 18 910 l 36 851 l 175 897 l 175 417 z m 749 972 l 185 0 l 249 0 l 814 972 z m 1118 174 l 1043 174 l 1043 318 l 976 318 l 976 174 l 753 174 l 961 556 l 889 556 l 681 174 l 681 111 l 976 111 l 976 0 l 1043 0 l 1043 111 l 1118 111 z "},"¾":{"ha":1294,"x_min":0,"x_max":0,"o":"m 428 576 b 272 743 428 664 371 729 l 406 908 l 406 972 l 56 972 l 56 908 l 328 908 l 193 739 l 225 690 l 231 690 b 361 576 315 690 361 640 b 231 464 361 513 318 464 b 94 544 158 464 117 494 l 39 513 b 231 400 71 443 135 400 b 428 576 353 400 428 475 z m 892 972 l 328 0 l 392 0 l 957 972 z m 1261 174 l 1186 174 l 1186 318 l 1119 318 l 1119 174 l 896 174 l 1104 556 l 1032 556 l 824 174 l 824 111 l 1119 111 l 1119 0 l 1186 0 l 1186 111 l 1261 111 z "},"⅛":{"ha":1132,"x_min":0,"x_max":0,"o":"m 242 417 l 242 972 l 189 972 l 18 910 l 36 851 l 175 897 l 175 417 z m 749 972 l 185 0 l 249 0 l 814 972 z m 993 292 b 1072 417 1039 317 1072 360 b 894 572 1072 517 990 572 b 715 417 797 572 715 517 b 796 292 715 360 749 317 b 697 144 736 265 697 213 b 894 -17 697 46 779 -17 b 1090 144 1010 -17 1090 46 b 993 292 1090 213 1051 265 z m 894 510 b 1006 417 961 510 1006 475 b 894 322 1006 360 960 322 b 782 417 828 322 782 360 b 894 510 782 475 826 510 z m 894 47 b 764 153 814 47 764 89 b 894 258 764 218 815 258 b 1024 153 969 258 1024 218 b 894 47 1024 89 975 47 z "},"⅜":{"ha":1275,"x_min":0,"x_max":0,"o":"m 428 576 b 272 743 428 664 371 729 l 406 908 l 406 972 l 56 972 l 56 908 l 328 908 l 193 739 l 225 690 l 231 690 b 361 576 315 690 361 640 b 231 464 361 513 318 464 b 94 544 158 464 117 494 l 39 513 b 231 400 71 443 135 400 b 428 576 353 400 428 475 z m 892 972 l 328 0 l 392 0 l 957 972 z m 1136 292 b 1215 417 1182 317 1215 360 b 1038 572 1215 517 1133 572 b 858 417 940 572 858 517 b 939 292 858 360 892 317 b 840 144 879 265 840 213 b 1038 -17 840 46 922 -17 b 1233 144 1153 -17 1233 46 b 1136 292 1233 213 1194 265 z m 1038 510 b 1149 417 1104 510 1149 475 b 1038 322 1149 360 1103 322 b 925 417 971 322 925 360 b 1038 510 925 475 969 510 z m 1038 47 b 907 153 957 47 907 89 b 1038 258 907 218 958 258 b 1167 153 1113 258 1167 218 b 1038 47 1167 89 1118 47 z "},"⅝":{"ha":1261,"x_min":0,"x_max":0,"o":"m 418 576 b 225 757 418 685 340 757 l 128 757 l 138 910 l 396 910 l 396 972 l 81 972 l 60 693 l 224 693 b 351 576 303 693 351 649 b 224 464 351 508 303 464 b 92 543 158 464 114 493 l 35 511 b 224 400 67 442 131 400 b 418 576 344 400 418 472 z m 878 972 l 314 0 l 378 0 l 943 972 z m 1122 292 b 1201 417 1168 317 1201 360 b 1024 572 1201 517 1119 572 b 844 417 926 572 844 517 b 925 292 844 360 878 317 b 826 144 865 265 826 213 b 1024 -17 826 46 908 -17 b 1219 144 1139 -17 1219 46 b 1122 292 1219 213 1181 265 z m 1024 510 b 1135 417 1090 510 1135 475 b 1024 322 1135 360 1089 322 b 911 417 957 322 911 360 b 1024 510 911 475 956 510 z m 1024 47 b 893 153 943 47 893 89 b 1024 258 893 218 944 258 b 1153 153 1099 258 1153 218 b 1024 47 1153 89 1104 47 z "},"⅞":{"ha":1219,"x_min":0,"x_max":0,"o":"m 393 972 l 24 972 l 24 908 l 319 908 l 107 417 l 178 417 l 393 918 z m 836 972 l 272 0 l 336 0 l 901 972 z m 1081 292 b 1160 417 1126 317 1160 360 b 982 572 1160 517 1078 572 b 803 417 885 572 803 517 b 883 292 803 360 836 317 b 785 144 824 265 785 213 b 982 -17 785 46 867 -17 b 1178 144 1097 -17 1178 46 b 1081 292 1178 213 1139 265 z m 982 510 b 1093 417 1049 510 1093 475 b 982 322 1093 360 1047 322 b 869 417 915 322 869 360 b 982 510 869 475 914 510 z m 982 47 b 851 153 901 47 851 89 b 982 258 851 218 903 258 b 1111 153 1057 258 1111 218 b 982 47 1111 89 1063 47 z "},"*":{"ha":538,"x_min":0,"x_max":0,"o":"m 449 849 l 317 846 l 390 956 l 336 988 l 268 872 l 201 988 l 146 956 l 219 846 l 88 849 l 88 789 l 219 792 l 146 682 l 201 650 l 268 767 l 336 650 l 390 682 l 317 792 l 449 789 z "},"\\":{"ha":732,"x_min":0,"x_max":0,"o":"m 615 -139 l 671 -139 l 115 1111 l 60 1111 z "},"·":{"ha":296,"x_min":0,"x_max":0,"o":"m 149 417 b 211 479 183 417 211 444 b 149 542 211 514 183 542 b 86 479 113 542 86 514 b 149 417 86 444 113 417 z "},"•":{"ha":389,"x_min":0,"x_max":0,"o":"m 196 365 b 315 488 263 365 315 419 b 196 607 315 554 263 607 b 74 488 128 607 74 554 b 196 365 74 419 128 365 z "},":":{"ha":296,"x_min":0,"x_max":0,"o":"m 149 569 b 211 632 183 569 211 597 b 149 694 211 667 183 694 b 86 632 113 694 86 667 b 149 569 86 597 113 569 z m 149 -14 b 211 49 183 -14 211 14 b 149 111 211 83 183 111 b 86 49 113 111 86 83 b 149 -14 86 14 113 -14 z "},",":{"ha":310,"x_min":0,"x_max":0,"o":"m 225 94 l 139 94 l 86 -194 l 150 -194 z "},"…":{"ha":824,"x_min":0,"x_max":0,"o":"m 149 -14 b 211 49 183 -14 211 14 b 149 111 211 83 183 111 b 86 49 113 111 86 83 b 149 -14 86 14 113 -14 z m 413 -14 b 475 49 447 -14 475 14 b 413 111 475 83 447 111 b 350 49 376 111 350 83 b 413 -14 350 14 376 -14 z m 676 -14 b 739 49 711 -14 739 14 b 676 111 739 83 711 111 b 614 49 640 111 614 83 b 676 -14 614 14 640 -14 z "},"!":{"ha":306,"x_min":0,"x_max":0,"o":"m 125 250 l 181 250 l 194 694 l 194 972 l 111 972 l 111 694 z m 153 -14 b 215 49 188 -14 215 14 b 153 111 215 83 188 111 b 90 49 118 111 90 83 b 153 -14 90 14 118 -14 z "},"¡":{"ha":306,"x_min":0,"x_max":0,"o":"m 153 708 b 90 646 118 708 90 681 b 153 583 90 611 118 583 b 215 646 188 583 215 611 b 153 708 215 681 188 708 z m 125 444 l 111 0 l 111 -278 l 194 -278 l 194 0 l 181 444 z "},"#":{"ha":838,"x_min":0,"x_max":0,"o":"m 776 579 l 788 643 l 622 643 l 665 903 l 596 903 l 553 643 l 339 643 l 382 903 l 313 903 l 269 643 l 101 643 l 92 579 l 258 579 l 228 393 l 61 393 l 51 329 l 217 329 l 174 69 l 243 69 l 286 329 l 500 329 l 457 69 l 526 69 l 569 329 l 736 329 l 747 393 l 581 393 l 611 579 z m 511 393 l 297 393 l 328 579 l 542 579 z "},".":{"ha":296,"x_min":0,"x_max":0,"o":"m 149 -14 b 211 49 183 -14 211 14 b 149 111 211 83 183 111 b 86 49 113 111 86 83 b 149 -14 86 14 113 -14 z "},"?":{"ha":736,"x_min":0,"x_max":0,"o":"m 306 250 l 379 250 b 649 738 379 463 649 528 b 363 988 649 901 518 988 b 74 804 235 988 117 926 l 136 769 b 363 917 167 867 254 917 b 574 738 489 917 574 854 b 306 250 574 553 306 494 z m 343 -14 b 406 49 378 -14 406 14 b 343 111 406 83 378 111 b 281 49 307 111 281 83 b 343 -14 281 14 307 -14 z "},"¿":{"ha":736,"x_min":0,"x_max":0,"o":"m 393 708 b 331 646 358 708 331 681 b 393 583 331 611 358 583 b 456 646 429 583 456 611 b 393 708 456 681 429 708 z m 431 444 l 357 444 b 88 -43 357 232 88 167 b 374 -293 88 -207 218 -293 b 663 -110 501 -293 619 -232 l 600 -75 b 374 -222 569 -172 482 -222 b 163 -43 247 -222 163 -160 b 431 444 163 142 431 200 z "},"\"":{"ha":407,"x_min":0,"x_max":0,"o":"m 83 713 l 139 713 l 149 972 l 74 972 z m 268 713 l 324 713 l 333 972 l 260 972 z "},"'":{"ha":218,"x_min":0,"x_max":0,"o":"m 83 713 l 139 713 l 149 972 l 74 972 z "},";":{"ha":319,"x_min":0,"x_max":0,"o":"m 172 569 b 235 632 207 569 235 597 b 172 694 235 667 207 694 b 110 632 136 694 110 667 b 172 569 110 597 136 569 z m 225 94 l 139 94 l 86 -194 l 150 -194 z "},"/":{"ha":732,"x_min":0,"x_max":0,"o":"m 115 -139 l 671 1111 l 615 1111 l 60 -139 z "},"_":{"ha":704,"x_min":0,"x_max":0,"o":"m 56 -185 l 649 -185 l 649 -118 l 56 -118 z "},"{":{"ha":485,"x_min":0,"x_max":0,"o":"m 457 -150 l 457 -83 b 296 56 347 -94 296 -57 l 296 315 b 185 488 296 418 257 469 b 296 660 257 506 296 557 l 296 919 b 457 1057 296 1032 347 1069 l 457 1125 b 225 919 307 1139 225 1068 l 225 660 b 74 521 225 547 175 521 l 74 454 b 225 315 175 454 225 428 l 225 56 b 457 -150 225 -93 307 -164 z "},"}":{"ha":485,"x_min":0,"x_max":0,"o":"m 28 -150 b 260 56 178 -164 260 -93 l 260 315 b 411 454 260 428 310 454 l 411 521 b 260 660 310 521 260 547 l 260 919 b 28 1125 260 1068 178 1139 l 28 1057 b 189 919 138 1069 189 1032 l 189 660 b 300 488 189 557 228 506 b 189 315 228 469 189 418 l 189 56 b 28 -83 189 -57 138 -94 z "},"[":{"ha":385,"x_min":0,"x_max":0,"o":"m 357 1043 l 357 1111 l 88 1111 l 88 -139 l 357 -139 l 357 -71 l 158 -71 l 158 1043 z "},"]":{"ha":385,"x_min":0,"x_max":0,"o":"m 297 1111 l 28 1111 l 28 1043 l 226 1043 l 226 -71 l 28 -71 l 28 -139 l 297 -139 z "},"(":{"ha":363,"x_min":0,"x_max":0,"o":"m 236 -139 l 307 -139 b 154 486 210 56 154 264 b 307 1111 154 708 210 917 l 236 1111 b 83 486 139 917 83 708 b 236 -139 83 264 139 56 z "},")":{"ha":363,"x_min":0,"x_max":0,"o":"m 126 -139 b 279 486 224 56 279 264 b 126 1111 279 708 224 917 l 56 1111 b 208 486 153 917 208 708 b 56 -139 208 264 153 56 z "},"—":{"ha":1074,"x_min":0,"x_max":0,"o":"m 121 396 l 954 396 l 954 463 l 121 463 z "},"–":{"ha":935,"x_min":0,"x_max":0,"o":"m 121 396 l 815 396 l 815 463 l 121 463 z "},"-":{"ha":740,"x_min":0,"x_max":0,"o":"m 121 396 l 621 396 l 621 463 l 121 463 z "},"«":{"ha":651,"x_min":0,"x_max":0,"o":"m 346 669 l 260 669 l 111 429 l 260 189 l 346 189 l 197 429 z m 540 669 l 454 669 l 307 429 l 454 189 l 540 189 l 393 429 z "},"»":{"ha":651,"x_min":0,"x_max":0,"o":"m 197 669 l 111 669 l 258 429 l 111 189 l 197 189 l 344 429 z m 392 669 l 306 669 l 454 429 l 306 189 l 392 189 l 540 429 z "},"‹":{"ha":457,"x_min":0,"x_max":0,"o":"m 346 669 l 260 669 l 111 429 l 260 189 l 346 189 l 197 429 z "},"›":{"ha":457,"x_min":0,"x_max":0,"o":"m 197 669 l 111 669 l 260 429 l 111 189 l 197 189 l 346 429 z "},"„":{"ha":486,"x_min":0,"x_max":0,"o":"m 225 94 l 139 94 l 86 -194 l 150 -194 z m 401 94 l 315 94 l 263 -194 l 326 -194 z "},"“":{"ha":486,"x_min":0,"x_max":0,"o":"m 85 683 l 171 683 l 224 972 l 160 972 z m 261 683 l 347 683 l 400 972 l 336 972 z "},"”":{"ha":486,"x_min":0,"x_max":0,"o":"m 225 972 l 139 972 l 86 683 l 150 683 z m 401 972 l 315 972 l 263 683 l 326 683 z "},"‘":{"ha":310,"x_min":0,"x_max":0,"o":"m 85 683 l 171 683 l 224 972 l 160 972 z "},"’":{"ha":310,"x_min":0,"x_max":0,"o":"m 225 972 l 139 972 l 86 683 l 150 683 z "},"‚":{"ha":310,"x_min":0,"x_max":0,"o":"m 225 94 l 139 94 l 86 -194 l 150 -194 z "}," ":{"ha":371,"x_min":0,"x_max":0,"o":""},"¢":{"ha":779,"x_min":0,"x_max":0,"o":"m 675 335 b 425 190 629 249 538 190 b 344 201 397 190 369 194 l 529 764 b 671 638 593 740 644 696 l 728 671 b 550 828 694 744 629 800 l 597 972 l 542 972 l 499 842 b 425 849 475 846 450 849 b 60 486 215 849 60 692 b 272 154 60 335 144 210 l 222 0 l 278 0 l 322 138 b 425 124 356 128 389 124 b 733 300 561 124 678 193 z m 131 486 b 425 782 131 651 257 782 b 478 778 443 782 461 781 l 294 219 b 131 486 196 267 131 368 z "},"¤":{"ha":768,"x_min":0,"x_max":0,"o":"m 679 486 b 611 676 679 560 653 625 l 707 774 l 671 810 l 574 713 b 383 779 522 754 456 779 b 194 713 311 779 246 754 l 96 810 l 60 774 l 158 676 b 89 486 115 626 89 560 b 158 296 89 413 115 346 l 60 199 l 96 163 l 194 260 b 383 193 246 218 311 193 b 574 260 456 193 522 218 l 671 163 l 707 199 l 611 296 b 679 486 653 347 679 413 z m 160 486 b 383 713 160 613 257 713 b 608 486 510 713 608 613 b 383 260 608 360 510 260 b 160 486 257 260 160 360 z "},"$":{"ha":764,"x_min":0,"x_max":0,"o":"m 704 249 b 435 519 704 414 576 469 l 435 914 b 618 776 524 903 586 856 l 681 811 b 435 986 638 915 544 974 l 435 1111 l 369 1111 l 369 986 b 106 735 222 976 106 879 b 369 468 106 569 228 518 l 369 56 b 124 218 240 63 156 121 l 60 182 b 369 -15 103 63 217 -8 l 369 -139 l 435 -139 l 435 -14 b 704 249 593 1 704 103 z m 179 735 b 369 915 179 832 256 906 l 369 543 b 179 735 260 583 179 625 z m 435 58 l 435 446 b 629 249 549 406 629 360 b 435 58 629 149 560 72 z "},"€":{"ha":836,"x_min":0,"x_max":0,"o":"m 510 56 b 219 372 356 56 249 171 l 593 372 l 593 435 l 214 435 b 213 486 213 451 213 468 b 214 546 213 507 213 526 l 593 546 l 593 607 l 221 607 b 510 917 251 804 358 917 b 733 767 614 917 694 863 l 794 801 b 510 988 747 918 646 988 b 147 607 310 988 179 839 l 32 607 l 32 546 l 140 546 b 139 486 139 526 139 507 b 140 435 139 468 139 451 l 32 435 l 32 372 l 146 372 b 510 -15 176 136 307 -15 b 794 172 646 -15 747 54 l 733 207 b 510 56 694 110 614 56 z "},"ƒ":{"ha":606,"x_min":0,"x_max":0,"o":"m 346 801 l 297 521 l 126 521 l 126 453 l 286 453 l 190 -106 b 0 -212 174 -207 99 -253 l 0 -282 b 261 -107 126 -322 235 -262 l 357 453 l 535 453 l 535 521 l 368 521 l 415 800 b 606 907 433 901 508 947 l 606 976 b 346 801 479 1017 371 957 z "},"₽":{"ha":801,"x_min":0,"x_max":0,"o":"m 476 399 b 764 685 635 399 764 528 b 476 972 764 843 635 972 l 143 972 l 143 468 l 18 468 l 18 399 l 143 399 l 143 254 l 18 254 l 18 193 l 143 193 l 143 0 l 218 0 l 218 193 l 588 193 l 588 254 l 218 254 l 218 399 z m 218 903 l 476 903 b 690 685 594 903 690 806 b 476 468 690 565 594 468 l 218 468 z "},"£":{"ha":819,"x_min":0,"x_max":0,"o":"m 272 71 l 272 407 l 607 407 l 607 472 l 272 472 l 272 708 b 478 917 272 844 364 917 b 678 772 579 917 644 865 l 738 807 b 478 988 693 919 606 988 b 199 708 333 988 199 892 l 199 472 l 88 472 l 88 407 l 199 407 l 199 71 l 60 71 l 60 0 l 796 0 l 796 71 z "},"¥":{"ha":792,"x_min":0,"x_max":0,"o":"m 796 972 l 713 972 l 408 478 l 401 478 l 97 972 l 14 972 l 321 478 l 103 478 l 103 415 l 358 415 l 368 400 l 368 308 l 103 308 l 103 247 l 368 247 l 368 0 l 442 0 l 442 247 l 690 247 l 690 308 l 442 308 l 442 400 l 451 415 l 690 415 l 690 478 l 489 478 z "},"+":{"ha":740,"x_min":0,"x_max":0,"o":"m 653 519 l 404 519 l 404 768 l 336 768 l 336 519 l 88 519 l 88 453 l 336 453 l 336 204 l 404 204 l 404 453 l 653 453 z "},"−":{"ha":750,"x_min":0,"x_max":0,"o":"m 88 453 l 663 453 l 663 519 l 88 519 z "},"×":{"ha":651,"x_min":0,"x_max":0,"o":"m 572 686 l 524 731 l 325 532 l 126 731 l 79 686 l 279 486 l 79 286 l 126 242 l 325 440 l 524 242 l 572 286 l 372 486 z "},"÷":{"ha":806,"x_min":0,"x_max":0,"o":"m 403 683 b 465 746 438 683 465 711 b 403 808 465 781 438 808 b 340 746 368 808 340 781 b 403 683 340 711 368 683 z m 88 453 l 718 453 l 718 519 l 88 519 z m 403 164 b 465 226 438 164 465 192 b 403 289 465 261 438 289 b 340 226 368 289 340 261 b 403 164 340 192 368 164 z "},"=":{"ha":746,"x_min":0,"x_max":0,"o":"m 88 592 l 657 592 l 657 658 l 88 658 z m 88 314 l 657 314 l 657 381 l 88 381 z "},"≠":{"ha":746,"x_min":0,"x_max":0,"o":"m 657 592 l 657 658 l 481 658 l 578 872 l 522 872 l 425 658 l 88 658 l 88 592 l 394 592 l 300 381 l 88 381 l 88 314 l 269 314 l 172 100 l 228 100 l 325 314 l 657 314 l 657 381 l 356 381 l 450 592 z "},">":{"ha":732,"x_min":0,"x_max":0,"o":"m 88 769 l 88 692 l 564 486 l 88 281 l 88 203 l 643 450 l 643 522 z "},"<":{"ha":732,"x_min":0,"x_max":0,"o":"m 644 769 l 89 522 l 89 450 l 644 203 l 644 281 l 168 486 l 644 692 z "},"≥":{"ha":732,"x_min":0,"x_max":0,"o":"m 88 824 l 88 746 l 557 569 l 88 393 l 88 315 l 643 535 l 643 604 z m 88 149 l 643 149 l 643 215 l 88 215 z "},"≤":{"ha":732,"x_min":0,"x_max":0,"o":"m 644 824 l 89 604 l 89 535 l 644 315 l 644 393 l 175 569 l 644 746 z m 89 149 l 644 149 l 644 215 l 89 215 z "},"±":{"ha":740,"x_min":0,"x_max":0,"o":"m 404 608 l 404 843 l 336 843 l 336 608 l 88 608 l 88 540 l 336 540 l 336 306 l 404 306 l 404 540 l 653 540 l 653 608 z m 88 129 l 653 129 l 653 197 l 88 197 z "},"≈":{"ha":815,"x_min":0,"x_max":0,"o":"m 392 568 b 726 651 589 439 692 533 l 663 682 b 424 626 640 594 583 522 b 88 543 229 754 124 661 l 151 513 b 392 568 175 600 233 671 z m 151 290 b 392 346 175 378 233 449 b 726 429 589 217 692 311 l 663 460 b 424 404 640 372 583 300 b 88 321 229 532 124 439 z "},"~":{"ha":815,"x_min":0,"x_max":0,"o":"m 663 571 b 424 515 640 483 583 411 b 88 432 229 643 124 550 l 151 401 b 392 457 175 489 233 561 b 726 540 588 328 692 422 z "},"¬":{"ha":722,"x_min":0,"x_max":0,"o":"m 88 531 l 88 463 l 564 463 l 564 290 l 635 290 l 635 531 z "},"∅":{"ha":1135,"x_min":0,"x_max":0,"o":"m 911 854 l 1032 1000 l 956 1000 l 865 890 b 568 988 782 951 679 988 b 65 486 290 988 65 764 b 225 119 65 342 126 211 l 103 -28 l 179 -28 l 271 82 b 568 -15 354 21 457 -15 b 1071 486 846 -15 1071 208 b 911 854 1071 632 1010 763 z m 129 486 b 568 926 129 731 325 926 b 825 843 664 926 753 896 l 265 167 b 129 486 181 247 129 360 z m 568 46 b 310 129 471 46 382 76 l 871 806 b 1006 486 954 725 1006 613 b 568 46 1006 242 811 46 z "},"∞":{"ha":1119,"x_min":0,"x_max":0,"o":"m 819 704 b 560 540 699 704 619 617 b 300 704 501 617 422 704 b 83 486 176 704 83 613 b 300 268 83 360 176 268 b 560 432 422 268 501 356 b 819 268 619 356 699 268 b 1036 486 943 268 1036 360 b 819 704 1036 613 943 704 z m 301 332 b 153 486 214 332 153 396 b 301 640 153 576 214 640 b 519 486 396 640 464 563 b 301 332 464 410 396 332 z m 819 332 b 601 486 726 332 658 410 b 819 640 658 563 726 640 b 968 486 907 640 968 576 b 819 332 968 396 907 332 z "},"∫":{"ha":606,"x_min":0,"x_max":0,"o":"m 0 -282 b 253 -107 126 -322 226 -262 l 407 800 b 606 907 425 903 492 947 l 606 975 b 338 801 463 1017 364 957 l 182 -106 b 0 -212 164 -207 99 -253 z "},"∏":{"ha":889,"x_min":0,"x_max":0,"o":"m 121 -278 l 190 -278 l 190 904 l 699 904 l 699 -278 l 768 -278 l 768 972 l 121 972 z "},"∑":{"ha":751,"x_min":0,"x_max":0,"o":"m 79 -278 l 704 -278 l 704 -210 l 160 -210 l 511 361 l 178 904 l 683 904 l 683 972 l 99 972 l 99 903 l 431 361 l 79 -210 z "},"√":{"ha":888,"x_min":0,"x_max":0,"o":"m 410 0 l 485 0 l 856 1111 l 781 1111 l 439 83 l 244 417 l 88 417 l 88 349 l 204 349 z "},"µ":{"ha":843,"x_min":0,"x_max":0,"o":"m 751 68 b 694 125 717 68 694 89 l 694 694 l 624 694 l 624 328 b 382 51 624 140 517 51 b 176 263 251 51 176 135 l 176 694 l 107 694 l 107 -278 l 176 -278 l 176 78 b 376 -15 218 18 285 -15 b 624 129 482 -15 571 29 l 624 125 b 744 0 624 49 671 0 l 797 0 l 797 68 z "},"∂":{"ha":801,"x_min":0,"x_max":0,"o":"m 324 988 b 147 940 258 988 200 974 l 147 872 b 324 919 203 906 260 919 b 643 519 518 919 633 738 b 389 597 565 574 475 597 b 74 278 190 597 74 465 b 358 -15 74 114 179 -15 b 714 486 560 -15 714 161 b 324 988 714 793 540 988 z m 358 51 b 144 278 219 51 144 150 b 389 529 144 439 242 529 b 642 447 474 529 564 506 b 358 51 632 200 524 51 z "},"%":{"ha":994,"x_min":0,"x_max":0,"o":"m 300 574 b 513 781 425 574 513 665 b 300 988 513 896 422 988 b 88 781 178 988 88 896 b 300 574 88 665 178 574 z m 300 638 b 157 781 217 638 157 700 b 300 924 157 861 217 924 b 444 781 385 924 444 861 b 300 638 444 700 385 638 z m 140 125 l 186 99 l 847 840 l 800 867 z m 693 -15 b 906 192 815 -15 906 76 b 693 399 906 307 815 399 b 481 192 571 399 481 307 b 693 -15 481 76 571 -15 z m 693 49 b 550 192 610 49 550 111 b 693 335 550 272 610 335 b 838 192 778 335 838 272 b 693 49 838 111 778 49 z "},"‰":{"ha":1494,"x_min":0,"x_max":0,"o":"m 300 574 b 513 781 425 574 513 665 b 300 988 513 896 422 988 b 88 781 178 988 88 896 b 300 574 88 665 178 574 z m 300 638 b 157 781 217 638 157 700 b 300 924 157 861 217 924 b 444 781 385 924 444 861 b 300 638 444 700 385 638 z m 140 125 l 186 99 l 847 840 l 800 867 z m 693 -15 b 906 192 815 -15 906 76 b 693 399 906 307 815 399 b 481 192 571 399 481 307 b 693 -15 481 76 571 -15 z m 1193 -15 b 1406 192 1315 -15 1406 76 b 1193 399 1406 307 1315 399 b 981 192 1071 399 981 307 b 1193 -15 981 76 1071 -15 z m 693 49 b 550 192 610 49 550 111 b 693 335 550 272 610 335 b 838 192 778 335 838 272 b 693 49 838 111 778 49 z m 1193 49 b 1050 192 1110 49 1050 111 b 1193 335 1050 272 1110 335 b 1338 192 1278 335 1338 272 b 1193 49 1338 111 1278 49 z "},"↑":{"ha":1010,"x_min":0,"x_max":0,"o":"m 921 556 l 504 972 l 88 556 l 88 460 l 469 842 l 469 0 l 540 0 l 540 840 l 921 460 z "},"↗":{"ha":888,"x_min":0,"x_max":0,"o":"m 211 815 l 144 749 l 683 749 l 88 154 l 139 103 l 733 699 l 733 160 l 800 226 l 800 815 z "},"→":{"ha":1149,"x_min":0,"x_max":0,"o":"m 643 903 l 547 903 l 931 519 l 88 519 l 88 453 l 931 453 l 547 69 l 643 69 l 1060 486 z "},"↘":{"ha":888,"x_min":0,"x_max":0,"o":"m 733 779 l 733 240 l 139 836 l 88 785 l 683 190 l 144 190 l 211 124 l 800 124 l 800 713 z "},"↓":{"ha":1010,"x_min":0,"x_max":0,"o":"m 540 132 l 540 972 l 469 972 l 469 131 l 88 513 l 88 417 l 504 0 l 921 417 l 921 513 z "},"↙":{"ha":888,"x_min":0,"x_max":0,"o":"m 800 785 l 750 836 l 156 242 l 156 779 l 88 713 l 88 124 l 676 124 l 744 190 l 204 190 z "},"←":{"ha":1149,"x_min":0,"x_max":0,"o":"m 1060 519 l 217 519 l 600 903 l 504 903 l 88 486 l 504 69 l 600 69 l 217 453 l 1060 453 z "},"↖":{"ha":888,"x_min":0,"x_max":0,"o":"m 800 154 l 204 749 l 744 749 l 676 815 l 88 815 l 88 226 l 156 160 l 156 697 l 750 103 z "},"↔":{"ha":1435,"x_min":0,"x_max":0,"o":"m 1006 829 l 910 829 l 1218 519 l 217 519 l 525 829 l 429 829 l 88 486 l 429 143 l 525 143 l 217 453 l 1218 453 l 910 143 l 1006 143 l 1347 486 z "},"↕":{"ha":871,"x_min":0,"x_max":0,"o":"m 778 678 l 778 774 l 435 1115 l 93 774 l 93 678 l 400 985 l 400 -12 l 93 294 l 93 199 l 435 -143 l 778 199 l 778 294 l 471 -11 l 471 983 z "},"◊":{"ha":747,"x_min":0,"x_max":0,"o":"m 338 0 l 410 0 l 668 486 l 410 972 l 338 972 l 79 486 z m 374 76 l 154 486 l 374 896 l 593 486 z "},"@":{"ha":1121,"x_min":0,"x_max":0,"o":"m 571 850 b 65 347 282 850 65 625 b 596 -156 65 56 293 -156 b 838 -118 694 -156 772 -142 l 833 -82 b 596 -121 767 -108 689 -121 b 101 347 311 -121 101 76 b 571 815 101 614 311 815 b 1019 375 824 815 1019 625 b 872 124 1019 200 953 124 b 781 250 804 124 781 182 l 781 560 l 714 560 l 714 486 b 550 569 678 538 619 569 b 325 347 421 569 325 472 b 550 125 325 222 421 125 b 717 213 622 125 681 160 b 863 85 729 131 785 85 b 1057 375 956 85 1057 163 b 571 850 1057 604 881 850 z m 553 189 b 392 347 464 189 392 253 b 553 506 392 442 464 506 b 714 347 642 506 714 442 b 553 189 714 253 642 189 z "},"&":{"ha":910,"x_min":0,"x_max":0,"o":"m 872 26 l 739 167 b 811 376 775 228 799 300 l 746 414 b 688 221 736 338 715 272 l 383 539 b 278 735 324 600 278 656 b 479 917 278 842 364 917 b 688 768 578 917 658 860 l 749 804 b 478 988 707 919 600 988 b 203 732 333 988 203 892 b 281 542 203 650 236 593 b 88 258 154 486 88 379 b 404 -15 88 90 213 -15 b 694 107 533 -15 629 32 l 807 -11 z m 401 56 b 163 260 256 56 163 132 b 332 488 163 349 210 442 l 644 160 b 401 56 583 90 500 56 z "},"¶":{"ha":792,"x_min":0,"x_max":0,"o":"m 732 972 l 329 972 b 60 704 179 972 60 853 b 329 435 60 556 179 435 l 329 -278 l 397 -278 l 397 907 l 579 907 l 579 -278 l 649 -278 l 649 907 l 732 907 z "},"§":{"ha":706,"x_min":0,"x_max":0,"o":"m 554 190 b 646 357 611 231 646 289 b 422 592 646 485 532 543 b 196 783 306 643 196 685 b 361 921 196 868 271 921 b 551 793 447 921 517 879 l 608 825 b 361 988 568 929 479 988 b 125 783 221 988 125 897 b 185 643 125 724 149 679 b 88 476 126 604 88 544 b 314 243 88 349 204 290 b 547 47 432 193 547 146 b 371 -87 547 -39 471 -87 b 150 60 263 -87 182 -43 l 90 25 b 371 -156 132 -89 229 -156 b 618 47 522 -156 618 -67 b 554 190 618 108 593 154 z m 158 476 b 238 603 158 525 183 571 b 392 532 285 575 339 553 b 575 357 489 492 575 449 b 500 232 575 310 551 264 b 342 303 453 260 396 282 b 158 476 244 340 158 385 z "},"©":{"ha":1135,"x_min":0,"x_max":0,"o":"m 568 -15 b 1071 486 846 -15 1071 208 b 568 988 1071 764 846 988 b 65 486 290 988 65 764 b 568 -15 65 208 290 -15 z m 568 18 b 101 486 311 18 101 226 b 568 954 101 746 311 954 b 1033 486 825 954 1033 746 b 568 18 1033 226 825 18 z m 572 219 b 800 349 672 219 757 271 l 740 383 b 572 285 711 319 644 285 b 372 486 451 285 372 379 b 572 688 372 593 451 688 b 740 590 643 688 710 653 l 799 624 b 572 753 756 701 672 753 b 303 486 418 753 303 635 b 572 219 303 338 418 219 z "},"®":{"ha":1135,"x_min":0,"x_max":0,"o":"m 568 988 b 65 486 290 988 65 764 b 568 -15 65 208 290 -15 b 1071 486 846 -15 1071 208 b 568 988 1071 764 846 988 z m 568 18 b 101 486 311 18 101 226 b 568 954 101 746 311 954 b 1033 486 825 954 1033 746 b 568 18 1033 226 825 18 z m 763 582 b 574 743 763 664 703 743 l 419 743 l 419 229 l 486 229 l 486 422 l 574 422 l 593 422 l 701 229 l 775 229 l 658 435 b 763 582 729 457 763 511 z m 486 486 l 486 679 l 576 679 b 696 582 656 679 696 639 b 576 486 696 524 658 486 z "},"™":{"ha":664,"x_min":0,"x_max":0,"o":"m 279 972 l 69 972 l 69 929 l 151 929 l 151 694 l 197 694 l 197 929 l 279 929 z m 549 972 l 456 824 l 363 972 l 317 972 l 317 694 l 363 694 l 363 893 l 453 749 l 458 749 l 549 893 l 549 694 l 594 694 l 594 972 z "},"°":{"ha":536,"x_min":0,"x_max":0,"o":"m 268 718 b 476 921 390 718 476 808 b 268 1125 476 1033 388 1125 b 60 921 149 1125 60 1033 b 268 718 60 808 149 718 z m 268 782 b 129 921 188 782 129 843 b 268 1061 129 1000 188 1061 b 407 921 349 1061 407 1000 b 268 782 407 843 350 782 z "},"|":{"ha":311,"x_min":0,"x_max":0,"o":"m 121 -278 l 190 -278 l 190 1000 l 121 1000 z "},"¦":{"ha":311,"x_min":0,"x_max":0,"o":"m 121 486 l 190 486 l 190 1000 l 121 1000 z m 121 -278 l 190 -278 l 190 236 l 121 236 z "},"†":{"ha":657,"x_min":0,"x_max":0,"o":"m 569 732 l 364 732 l 364 972 l 293 972 l 293 732 l 88 732 l 88 665 l 293 665 l 293 0 l 364 0 l 364 665 l 569 665 z "},"‡":{"ha":657,"x_min":0,"x_max":0,"o":"m 569 665 l 569 732 l 364 732 l 364 972 l 293 972 l 293 732 l 88 732 l 88 665 l 293 665 l 293 307 l 88 307 l 88 240 l 293 240 l 293 0 l 364 0 l 364 240 l 569 240 l 569 307 l 364 307 l 364 665 z "},"℮":{"ha":1157,"x_min":0,"x_max":0,"o":"m 579 986 b 65 486 272 986 65 763 b 607 -14 65 210 272 -14 b 1017 149 783 -14 924 49 b 1004 175 1029 163 1022 175 l 953 175 b 928 163 942 175 935 171 b 607 28 853 78 744 28 b 283 151 461 28 358 72 b 274 178 276 160 274 167 l 274 444 b 294 465 274 458 281 465 l 1072 465 b 1093 486 1086 465 1093 472 b 579 986 1093 763 886 986 z m 885 794 l 885 528 b 864 507 885 514 878 507 l 294 507 b 274 528 281 507 274 514 l 274 794 b 283 821 274 806 276 813 b 579 944 358 900 461 944 b 875 821 697 944 800 900 b 885 794 882 813 885 806 z "},"№":{"ha":1415,"x_min":0,"x_max":0,"o":"m 1147 581 b 1356 783 1269 581 1356 671 b 1147 988 1356 896 1267 988 b 939 783 1028 988 939 896 b 1147 581 939 671 1028 581 z m 760 972 l 760 136 l 185 972 l 121 972 l 121 0 l 194 0 l 194 836 l 768 0 l 833 0 l 833 972 z m 1147 644 b 1008 783 1067 644 1008 706 b 1147 924 1008 863 1067 924 b 1286 783 1228 924 1286 863 b 1147 644 1286 706 1229 644 z m 956 403 l 1340 403 l 1340 471 l 956 471 z "},"^":{"ha":697,"x_min":0,"x_max":0,"o":"m 383 972 l 314 972 l 69 556 l 151 556 l 349 893 l 546 556 l 628 556 z "},"̈":{"ha":0,"x_min":0,"x_max":0,"o":"m -328 801 b -278 851 -300 801 -278 824 b -328 903 -278 881 -300 903 b -379 851 -357 903 -379 881 b -328 801 -379 824 -357 801 z m -78 801 b -28 851 -50 801 -28 824 b -78 903 -28 881 -50 903 b -129 851 -107 903 -129 881 b -78 801 -129 824 -107 801 z "},"̇":{"ha":0,"x_min":0,"x_max":0,"o":"m -92 796 b -28 861 -56 796 -28 825 b -92 926 -28 897 -56 926 b -157 861 -129 926 -157 897 b -92 796 -157 825 -129 796 z "},"̀":{"ha":0,"x_min":0,"x_max":0,"o":"m -28 792 l -94 792 l -222 968 l -139 968 z "},"́":{"ha":0,"x_min":0,"x_max":0,"o":"m -222 792 l -111 968 l -28 968 l -154 792 z "},"̋":{"ha":0,"x_min":0,"x_max":0,"o":"m -410 792 l -312 972 l -235 972 l -339 792 z m -212 792 l -101 972 l -24 972 l -142 792 z "},"̂":{"ha":0,"x_min":0,"x_max":0,"o":"m -28 792 l -178 968 l -260 968 l -410 792 l -331 792 l -218 924 l -107 792 z "},"̌":{"ha":0,"x_min":0,"x_max":0,"o":"m -107 968 l -218 836 l -329 968 l -410 968 l -260 792 l -176 792 l -26 968 z "},"̆":{"ha":0,"x_min":0,"x_max":0,"o":"m -222 785 b -37 954 -110 785 -37 849 l -104 954 b -222 846 -104 882 -149 846 b -340 954 -296 846 -340 882 l -407 954 b -222 785 -407 849 -333 785 z "},"̊":{"ha":0,"x_min":0,"x_max":0,"o":"m -171 768 b -28 903 -85 768 -28 826 b -171 1038 -28 979 -85 1038 b -312 903 -256 1038 -312 979 b -171 768 -312 826 -256 768 z m -171 824 b -253 903 -222 824 -253 857 b -171 982 -253 949 -222 982 b -86 903 -118 982 -86 949 b -171 824 -86 857 -118 824 z "},"̃":{"ha":0,"x_min":0,"x_max":0,"o":"m -406 810 l -344 810 b -219 849 -344 918 -297 915 b -28 951 -124 765 -28 796 l -89 951 b -214 913 -89 844 -136 846 b -406 810 -310 996 -406 967 z "},"̄":{"ha":0,"x_min":0,"x_max":0,"o":"m -379 815 l -28 815 l -28 876 l -379 876 z "},"̒":{"ha":0,"x_min":0,"x_max":0,"o":"m -78 1333 l -28 1333 l -42 1097 l -112 1097 z "},"̦":{"ha":0,"x_min":0,"x_max":0,"o":"m -62 -333 l -112 -333 l -99 -97 l -28 -97 z "},"̧":{"ha":0,"x_min":0,"x_max":0,"o":"m -154 -78 l -154 0 l -217 0 l -217 -122 b -89 -182 -135 -122 -89 -142 b -299 -236 -89 -226 -158 -250 l -299 -293 b -28 -182 -87 -310 -28 -250 b -154 -78 -28 -122 -83 -86 z "},"̨":{"ha":0,"x_min":0,"x_max":0,"o":"m -103 -293 b -28 -279 -74 -293 -50 -289 l -28 -221 b -87 -233 -47 -229 -65 -233 b -144 -182 -122 -233 -144 -217 b -29 0 -144 -129 -100 -64 l -103 0 b -212 -193 -176 -67 -212 -136 b -103 -293 -212 -253 -174 -293 z "},"´":{"ha":250,"x_min":0,"x_max":0,"o":"m 28 792 l 139 968 l 222 968 l 96 792 z "},"˘":{"ha":426,"x_min":0,"x_max":0,"o":"m 213 785 b 397 954 325 785 397 849 l 331 954 b 213 846 331 882 286 846 b 94 954 139 846 94 882 l 28 954 b 213 785 28 849 101 785 z "},"ˇ":{"ha":438,"x_min":0,"x_max":0,"o":"m 331 968 l 219 836 l 108 968 l 28 968 l 178 792 l 261 792 l 411 968 z "},"¸":{"ha":317,"x_min":0,"x_max":0,"o":"m 167 -78 l 167 0 l 104 0 l 104 -122 b 232 -182 186 -122 232 -142 b 22 -236 232 -226 163 -250 l 22 -293 b 293 -182 233 -310 293 -250 b 167 -78 293 -122 238 -86 z "},"ˆ":{"ha":438,"x_min":0,"x_max":0,"o":"m 410 792 l 260 968 l 178 968 l 28 792 l 107 792 l 219 924 l 331 792 z "},"¨":{"ha":407,"x_min":0,"x_max":0,"o":"m 79 801 b 129 851 107 801 129 824 b 79 903 129 881 107 903 b 28 851 50 903 28 881 b 79 801 28 824 50 801 z m 329 801 b 379 851 357 801 379 824 b 329 903 379 881 357 903 b 278 851 300 903 278 881 b 329 801 278 824 300 801 z "},"˙":{"ha":185,"x_min":0,"x_max":0,"o":"m 93 796 b 157 861 129 796 157 825 b 93 926 157 897 129 926 b 28 861 56 926 28 897 b 93 796 28 825 56 796 z "},"`":{"ha":250,"x_min":0,"x_max":0,"o":"m 222 792 l 156 792 l 28 968 l 111 968 z "},"˝":{"ha":442,"x_min":0,"x_max":0,"o":"m 28 792 l 125 972 l 203 972 l 99 792 z m 225 792 l 336 972 l 414 972 l 296 792 z "},"¯":{"ha":407,"x_min":0,"x_max":0,"o":"m 28 815 l 379 815 l 379 876 l 28 876 z "},"˛":{"ha":240,"x_min":0,"x_max":0,"o":"m 138 -293 b 213 -279 167 -293 190 -289 l 213 -221 b 153 -233 193 -229 175 -233 b 96 -182 118 -233 96 -217 b 211 0 96 -129 140 -64 l 138 0 b 28 -193 64 -67 28 -136 b 138 -293 28 -253 67 -293 z "},"˚":{"ha":340,"x_min":0,"x_max":0,"o":"m 169 768 b 313 903 256 768 313 826 b 169 1038 313 979 256 1038 b 28 903 85 1038 28 979 b 169 768 28 826 85 768 z m 169 824 b 88 903 118 824 88 857 b 169 982 88 949 118 982 b 254 903 222 982 254 949 b 169 824 254 857 222 824 z "},"˜":{"ha":433,"x_min":0,"x_max":0,"o":"m 28 810 l 89 810 b 214 849 89 918 136 915 b 406 951 310 765 406 796 l 344 951 b 219 913 344 844 297 846 b 28 810 124 996 28 967 z "}}}
